<svg width="0" height="0" class="hidden">
	<symbol xmlns="http://www.w3.org/2000/svg" viewBox="0 0 504 274" id="eye">
		<path d="M251.991 274c-56.674 0-117.67-22.142-176.391-64.032-43.9-31.315-70.993-62.34-72.125-63.647a14.228 14.228 0 0 1 0-18.642C4.607 126.373 31.7 95.347 75.6 64.032 134.323 22.144 195.318 0 251.991 0s117.672 22.142 176.393 64.032c43.9 31.315 70.992 62.34 72.124 63.647a14.228 14.228 0 0 1 0 18.642c-1.132 1.3-28.226 32.332-72.124 63.647C369.663 251.857 308.667 274 251.991 274zM33.788 137a449.6 449.6 0 0 0 58.939 50.2c37.431 26.608 95.446 58.329 159.264 58.329s121.836-31.724 159.265-58.329A449.791 449.791 0 0 0 470.2 137a449.712 449.712 0 0 0-58.94-50.195c-37.429-26.609-95.445-58.33-159.265-58.33S130.158 60.2 92.727 86.806A449.5 449.5 0 0 0 33.788 137zm218.2 88.27a88.27 88.27 0 1 1 58.2-154.685A14.244 14.244 0 1 1 291.411 92a59.783 59.783 0 1 0 20.437 45 14.252 14.252 0 0 1 28.5 0 88.413 88.413 0 0 1-88.357 88.271zm0-59.8A28.474 28.474 0 1 1 280.5 137a28.52 28.52 0 0 1-28.509 28.475z" fill-rule="evenodd"></path>
	</symbol>
	<symbol xmlns="http://www.w3.org/2000/svg" viewBox="0 0 435 509" id="home">
		<path d="M422.681 252.441a12.328 12.328 0 0 0-12.327 12.326v219.585H278.1V346.51a12.328 12.328 0 0 0-12.325-12.326h-96.544a12.328 12.328 0 0 0-12.325 12.326v109.3a12.325 12.325 0 0 0 24.65 0v-96.975h71.894v125.517H24.65V182.667L217.5 28.11l197.47 158.257a12.326 12.326 0 0 0 15.416-19.236L225.209 2.695a12.319 12.319 0 0 0-15.414 0L4.618 167.131A12.324 12.324 0 0 0 0 176.748v319.928A12.325 12.325 0 0 0 12.325 509H422.68a12.325 12.325 0 0 0 12.325-12.324V264.767a12.324 12.324 0 0 0-12.324-12.326z" fill-rule="evenodd"></path>
	</symbol>
	<symbol xmlns="http://www.w3.org/2000/svg" viewBox="0 0 507 507" id="icon-profile">
		<path d="M507 253.53C507 113.831 393.169 0 253.47 0S0 113.831 0 253.53c0 76.944 34.91 146.17 89.22 192.693a8.448 8.448 0 0 0 2.575 1.914A250.811 250.811 0 0 0 254.129 507c60.779 0 117.064-21.977 161.017-57.544a10.164 10.164 0 0 0 5.808-4.55C473.408 397.721 507 329.817 507 253.53zm-483.707 0c0-126.765 103.472-230.237 230.237-230.237S483.766 126.765 483.766 253.53A228.692 228.692 0 0 1 419.1 413.287c-6.466-30.418-25.868-82.153-85.388-115.745 13.593-16.827 21.316-38.8 21.316-62.095a100.9 100.9 0 1 0-201.794 0c0 23.293 8.384 44.611 21.318 62.095-60.059 33.592-79.46 85.329-85.269 115.745a225.841 225.841 0 0 1-65.99-159.757zm152.633-17.485a77.6 77.6 0 1 1 77.6 77.6 77.817 77.817 0 0 1-77.6-77.6zm-65.988 197.244c1.318-18.744 11.617-82.155 81.5-117.724a100.213 100.213 0 0 0 62.1 21.318 102.68 102.68 0 0 0 62.754-21.975c69.221 35.567 80.18 97.663 82.153 117.722a230.478 230.478 0 0 1-144.188 51.076c-55.038.06-104.857-18.682-144.319-50.417z" fill-rule="evenodd"></path>
	</symbol>
	<symbol xmlns="http://www.w3.org/2000/svg" viewBox="0 0 509 509" id="menu-button">
		<path d="M254.5 0C114.168 0 0 114.168 0 254.5a255.315 255.315 0 0 0 81.744 186.887 10.359 10.359 0 0 0 14.065-15.211A234.525 234.525 0 0 1 20.716 254.5c0-128.908 104.876-233.784 233.784-233.784S488.284 125.592 488.284 254.5 383.408 488.284 254.5 488.284a10.358 10.358 0 1 0 0 20.716C394.834 509 509 394.831 509 254.5S394.834 0 254.5 0zM145.332 155.69h218.337a10.358 10.358 0 1 0 0-20.715H145.332a10.358 10.358 0 0 0 0 20.715zm0 109.168h218.337a10.358 10.358 0 0 0 0-20.716H145.332a10.358 10.358 0 0 0 0 20.716zm228.7 98.811a10.36 10.36 0 0 0-10.358-10.357H145.332a10.358 10.358 0 0 0 0 20.715h218.337a10.361 10.361 0 0 0 10.358-10.358z" fill-rule="evenodd"></path>
	</symbol>
	<symbol xmlns="http://www.w3.org/2000/svg" viewBox="0 0 505 414" id="my-account">
		<path d="M292.844 85.878c-3.689 0-7.381-.14-11.063.031-6.195.288-10.642 4.669-10.78 10.392a10.626 10.626 0 0 0 10.241 10.905c7.528.316 15.09.321 22.611-.006a10.635 10.635 0 0 0 10.281-10.862C314 90.594 309.6 86.225 303.4 85.916c-3.512-.174-7.038-.029-10.556-.038zm-.463 75.507c-3.692 0-7.4-.176-11.08.039A10.6 10.6 0 0 0 271 171.76a10.478 10.478 0 0 0 10.306 10.814c7.379.27 14.777.168 22.158.038 3.433-.061 10.525-7.413 10.661-10.7.219-5.245-4.366-10.125-10.164-10.479-3.842-.233-7.716-.043-11.58-.048zm-140.335 16.4l-.484-.072c0-2.011.094-4.027-.016-6.032a10.631 10.631 0 0 0-21.248.011c-.172 4.015-.195 8.051.033 12.06a10.655 10.655 0 0 0 8.839 9.641c4.22.857 9.589-1.581 11.2-5.856 1.144-3.037 1.158-6.492 1.676-9.757zm0 75.5c-.166-.021-.333-.045-.5-.068 0-2.178.147-4.368-.028-6.533a10.63 10.63 0 0 0-21.187.059 110.974 110.974 0 0 0 0 12.557 10.643 10.643 0 0 0 8.858 9.619c4.215.852 9.584-1.6 11.184-5.882 1.141-3.037 1.157-6.491 1.671-9.76zm136.538-16.344c-2.617 0-5.123-.177-7.6.033a10.622 10.622 0 0 0-9.977 10.63 10.431 10.431 0 0 0 9.616 10.438c3.958.346 7.979.068 12.025.068-1.36-7.11-2.648-13.81-4.066-21.177zM0 330.531c2.991-6.451 8.058-8.618 15.076-8.252 11.591.61 23.218.61 34.828.844 1.3.028 2.608-.1 4.521-.185v-6.121q.02-93.408.038-186.818c0-9.547 4.165-15.122 11.113-14.9s10.554 5.849 10.532 15.4q-.234 95.169-.294 190.339a17.592 17.592 0 0 0 .262 1.942h129.642V107.35h-5.932l-105.041-.1c-1.178 0-2.357.02-3.534-.008-7.328-.176-12.592-4.9-12.373-11.092.217-6.134 5.289-10.491 12.442-10.479 20.872.029 41.744.152 62.617.191 17.147.036 34.293.009 52.06.009V0h172.877v151.092h-21.049V21.531H227.637v301.662h29.49c-4.008 7.062-7.485 13.522-11.375 19.722-.7 1.107-3.1 1.594-4.721 1.6-15.318.119-30.638.073-45.956.073-59.929 0-119.857-.073-179.784.094-6.892.021-12.051-1.914-15.286-8.115Q0 333.551 0 330.531zm257.339 63.786H485.8a110.538 110.538 0 0 0-8.88-35.182q-18.6-42.256-61.175-60.308a9.56 9.56 0 0 0-7.281.421c-46.234 25.242-103.419-2.087-112.3-53.807-5.921-34.451 12.914-68.562 45.547-82.5a76.417 76.417 0 0 1 91.089 24.88 75.337 75.337 0 0 1-2.631 93.217c-.623.744-1.208 1.526-1.324 1.675 10.085 7.012 20.626 13.107 29.712 20.881 30.094 25.757 45.055 58.97 46.446 98.358.273 7.855-4.015 12.031-12.064 12.031q-121.451.026-242.9 0c-7.873 0-12.679-4.177-12.4-11.316 1.525-39.06 16.06-72.19 45.556-98.407 3.724-3.308 7.775-3.853 11.977-1.044a8.362 8.362 0 0 1 3.541 10.143c-.8 2.361-2.848 4.481-4.748 6.266-20.893 19.6-33.339 43.426-36.606 71.913a26.548 26.548 0 0 0-.02 2.779zm56.69-161.637a57.444 57.444 0 0 0 57.21 57.509c31.439.087 57.682-25.868 57.8-57.174.12-31.232-26.114-57.489-57.469-57.521a57.459 57.459 0 0 0-57.541 57.186zm-21.185-146.8c3.518 0 7.044-.139 10.554.036 6.2.309 10.6 4.679 10.738 10.423a10.635 10.635 0 0 1-10.279 10.861c-7.523.327-15.087.322-22.614.006A10.626 10.626 0 0 1 271 96.3c.14-5.723 4.585-10.1 10.78-10.392 3.683-.17 7.375-.03 11.064-.027zm-.463 75.507c3.864 0 7.738-.188 11.586.047 5.8.356 10.383 5.236 10.164 10.479-.137 3.285-7.228 10.637-10.66 10.7-7.384.13-14.782.232-22.159-.038a10.478 10.478 0 0 1-10.306-10.814 10.6 10.6 0 0 1 10.3-10.336c3.677-.216 7.383-.04 11.075-.037zM152.046 177.78c-.52 3.265-.534 6.718-1.679 9.752-1.61 4.275-6.98 6.713-11.2 5.856a10.656 10.656 0 0 1-8.84-9.641c-.228-4.008-.2-8.045-.032-12.06a10.631 10.631 0 0 1 21.248-.011c.111 2.005.015 4.022.015 6.032.167.023.329.048.488.072zm0 75.5c-.516 3.269-.532 6.718-1.669 9.752-1.6 4.282-6.97 6.734-11.185 5.882a10.638 10.638 0 0 1-8.858-9.619 110.508 110.508 0 0 1 0-12.557 10.63 10.63 0 0 1 21.187-.059c.176 2.165.029 4.357.029 6.533.162.02.33.044.494.065zm136.538-16.344C290 244.3 291.288 251 292.647 258.1c-4.046 0-8.067.278-12.025-.068a10.431 10.431 0 0 1-9.616-10.438 10.623 10.623 0 0 1 9.977-10.63c2.473-.208 4.982-.031 7.599-.031z" fill-rule="evenodd"></path>
	</symbol>
	<symbol xmlns="http://www.w3.org/2000/svg" viewBox="0 0 500 499" id="my-cv">
		<path d="M376.827 38.775a72.1 72.1 0 0 0-71.991 71.925 71.231 71.231 0 0 0 22.5 52.26l1.124 1.124a71.567 71.567 0 0 0 48.368 19.105 70.513 70.513 0 0 0 48.367-19.105l1.124-1.124c14.064-12.925 22.5-31.468 22.5-52.26.001-39.333-32.619-71.925-71.992-71.925zm0 124.748a51.381 51.381 0 0 1-30.371-9.552 36.449 36.449 0 0 1 60.742 0 52.647 52.647 0 0 1-30.371 9.552zM366.7 107.892v-5.057a10.125 10.125 0 0 1 20.249 0v5.057a10.125 10.125 0 0 1-20.249 0zm53.992 32.03a51.44 51.44 0 0 0-19.119-15.734 30.176 30.176 0 0 0 4.5-15.734V103.4a29.809 29.809 0 0 0-59.618 0v5.058a30.159 30.159 0 0 0 4.5 15.734c-7.313 3.934-14.064 8.991-19.121 15.734a50.442 50.442 0 0 1-8.437-28.659 52.867 52.867 0 0 1 105.734 0 50.476 50.476 0 0 1-8.431 28.655zm68.617 237.7a37.6 37.6 0 0 0-47.806-4.5h-.563l-54.557 41.023a9.618 9.618 0 0 0 11.817 15.178l54.556-41.023a17.954 17.954 0 0 1 23.059 2.247 14.3 14.3 0 0 1 4.5 12.365 14.671 14.671 0 0 1-6.185 11.8l-50.056 40.459c-19.121 15.171-43.309 24.163-67.493 24.163H212.038a108.278 108.278 0 0 1-55.681-15.734L116.988 440V316.375h75.365a38.248 38.248 0 0 1 27.56 11.239l51.74 52.26a39.2 39.2 0 0 0 27.558 11.241h38.245a14.612 14.612 0 1 1 0 29.223h-73.115a33.128 33.128 0 0 1-19.119-5.618l-31.5-20.231c-4.5-2.809-10.687-1.685-13.5 2.811s-1.687 10.677 2.812 13.487l31.5 20.229a56.17 56.17 0 0 0 29.81 8.992h73.678a34.431 34.431 0 0 0 34.31-34.278 34.073 34.073 0 0 0-34.31-34.279h-37.683l80.989-46.643h98.425a19.917 19.917 0 0 0 19.686-19.664V19.668A19.921 19.921 0 0 0 479.753 0H273.34a19.92 19.92 0 0 0-19.686 19.668v286.588a19.919 19.919 0 0 0 19.686 19.666h69.18l-61.869 35.964-46.681-46.643c-11.249-11.243-25.87-16.855-41.62-16.855h-74.8v-17.42A19.919 19.919 0 0 0 97.861 261.3h-88.3A9.474 9.474 0 0 0 0 270.854v218.592A9.475 9.475 0 0 0 9.562 499h88.3a19.92 19.92 0 0 0 19.686-19.669v-16.3l29.246 17.419A129.246 129.246 0 0 0 212.6 499h144.542a128.037 128.037 0 0 0 79.863-28.1l50.056-40.463c7.875-6.179 12.375-15.733 12.937-25.845a39.737 39.737 0 0 0-10.685-26.97zM273.34 306.256V19.668h206.974v286.588H273.34zM97.861 479.331H19.684V280.406h78.179v198.927zM228.346 48.889a9.883 9.883 0 0 0-13.5-3.371l-87.739 50.573A19.5 19.5 0 0 0 119.8 122.5l85.488 147.789a9.282 9.282 0 0 0 8.437 5.057 16.44 16.44 0 0 0 5.062-1.124 9.863 9.863 0 0 0 3.374-13.486l-84.928-147.788 87.738-50.572a9.863 9.863 0 0 0 3.375-13.487zm208.661 157.9H323.958a9.553 9.553 0 1 0 0 19.1h113.049a9.473 9.473 0 0 0 9.56-9.552c.564-5.048-3.936-9.545-9.56-9.545zm6.749 45.517a9.56 9.56 0 0 0-16.309 6.745 9.3 9.3 0 0 0 2.811 6.741 9.562 9.562 0 0 0 16.311-6.741 6.843 6.843 0 0 0-2.813-6.742zm-47.244-2.806h-72.554a9.554 9.554 0 1 0 0 19.107h72.554a9.475 9.475 0 0 0 9.561-9.553 9.852 9.852 0 0 0-9.561-9.554z" fill-rule="evenodd"></path>
	</symbol>
	<symbol xmlns="http://www.w3.org/2000/svg" viewBox="0 0 490 506" id="my-offers">
		<path d="M269 374.311l-44.742-44.8c-10.783-10.793-24.8-16.189-39.893-16.189h-71.7v-16.728A19.111 19.111 0 0 0 93.8 277.706H9.164A9.091 9.091 0 0 0 0 286.88v209.942A9.094 9.094 0 0 0 9.164 506H93.8a19.113 19.113 0 0 0 18.867-18.892v-15.651l28.033 16.73A123.672 123.672 0 0 0 203.775 506h138.546a122.551 122.551 0 0 0 76.547-26.987l47.982-38.859a33.758 33.758 0 0 0 12.4-24.826 38.2 38.2 0 0 0-10.242-25.9 35.991 35.991 0 0 0-45.824-4.321h-.537l-52.294 39.4a9.227 9.227 0 0 0 11.322 14.573l52.291-39.4a17.191 17.191 0 0 1 22.1 2.157 13.742 13.742 0 0 1 4.313 11.872 14.091 14.091 0 0 1-5.929 11.336L406.473 463.9c-18.329 14.57-41.511 23.207-64.69 23.207H203.236A103.618 103.618 0 0 1 149.867 472l-37.737-22.672V330.594h72.239a36.624 36.624 0 0 1 26.416 10.794l49.6 50.193a37.524 37.524 0 0 0 26.415 10.793h36.656a14.033 14.033 0 0 1 0 28.066h-70.084a31.727 31.727 0 0 1-18.329-5.394l-30.188-19.432a9.354 9.354 0 0 0-10.243 15.654l30.19 19.425a53.755 53.755 0 0 0 28.572 8.637H324a33.035 33.035 0 0 0 32.885-32.921A32.691 32.691 0 0 0 324 383.486h-36.126M93.8 487.106H18.868V296.054H93.8v191.052zm383.707-286.981A12.5 12.5 0 0 0 490 187.617v-86.3a50.061 50.061 0 0 0-49.977-50.033h-52.471v-1.253A50.06 50.06 0 0 0 337.576 0h-16.241a50.06 50.06 0 0 0-49.977 50.031v1.251h-51.22a50.061 50.061 0 0 0-49.977 50.033v148.837a50.061 50.061 0 0 0 49.977 50.034h219.887A50.061 50.061 0 0 0 490 250.152a12.493 12.493 0 1 0-24.986 0 25.035 25.035 0 0 1-24.99 25.018H220.139a25.034 25.034 0 0 1-24.988-25.018V137.7a210.758 210.758 0 0 0 17.11 15.037c31.346 24.673 67.963 38.837 106.577 41.353v17.294a12.494 12.494 0 1 0 24.988 0v-17.3a185.86 185.86 0 0 0 105.449-41.447 200.753 200.753 0 0 0 15.74-14.145v49.122a12.5 12.5 0 0 0 12.492 12.511zM296.35 50.031a25.031 25.031 0 0 1 24.985-25.015h16.241a25.03 25.03 0 0 1 24.988 25.015v1.251h-66.216v-1.251zm34.982 119.45c-37.751 0-72.373-12.062-102.906-35.847a177.736 177.736 0 0 1-33.234-33.7A25.033 25.033 0 0 1 220.139 76.3h219.888a25.028 25.028 0 0 1 24.956 23.784c-9.246 13.223-53.283 69.397-133.651 69.397z" fill-rule="evenodd"></path>
	</symbol>
	<symbol xmlns="http://www.w3.org/2000/svg" viewBox="0 0 421 503" id="offer">
		<path d="M379.933 164.379a7.4 7.4 0 0 0-7.83 7.828v101.758a7.4 7.4 0 0 1-7.83 7.828H82.38a7.4 7.4 0 0 1-7.83-7.828V172.207a7.83 7.83 0 0 0-15.66 0v101.758a23.068 23.068 0 0 0 23.491 23.483h281.891a23.068 23.068 0 0 0 23.491-23.483V172.207a7.4 7.4 0 0 0-7.83-7.828zM372.1 54.793H74.551A23.068 23.068 0 0 0 51.06 78.276v50.1a23.5 23.5 0 0 0 18.009 22.7l122.937 27.4v25.048a7.4 7.4 0 0 0 7.83 7.827h46.982a7.4 7.4 0 0 0 7.83-7.827v-25.055l122.936-27.4a23.5 23.5 0 0 0 18.01-22.7v-50.1A23.068 23.068 0 0 0 372.1 54.793zm-133.115 140.9h-31.318v-31.31h31.321v31.31zm140.945-67.317a7.622 7.622 0 0 1-6.264 7.827l-119.018 26.611v-6.262a7.4 7.4 0 0 0-7.831-7.828h-46.981a7.4 7.4 0 0 0-7.831 7.828v6.262L72.984 136.2a7.623 7.623 0 0 1-6.264-7.827v-50.1a7.4 7.4 0 0 1 7.83-7.827H372.1a7.4 7.4 0 0 1 7.83 7.827v50.1zM262.479 0h-78.3a23.067 23.067 0 0 0-23.491 23.483v7.827a7.83 7.83 0 0 0 15.66 0v-7.827a7.4 7.4 0 0 1 7.831-7.828h78.3a7.4 7.4 0 0 1 7.83 7.828v7.827a7.831 7.831 0 0 0 15.661 0v-7.827A23.066 23.066 0 0 0 262.479 0zM0 449.283h2.391q21.745-.053 43.491-.109c2.636-.006 2.646-.012 2.65-2.579q.058-37.9.11-75.8c.015-10.962 0-21.924.073-32.886.011-1.61-.405-2.105-2.071-2.1-14.745.067-29.49.041-44.235.042H.119v-16.04a13.885 13.885 0 0 1 1.479-.157q41.352.024 82.706.075c1.794 0 3.588.17 5.382.259a6.985 6.985 0 0 1 6.9 5.613c.409 1.79 1.247 2.113 2.9 2.116q36.428.079 72.855.274a17.222 17.222 0 0 0 2.413.022c4.871-.668 8.339 1.461 11.7 4.865 13.8 13.962 27.833 27.693 41.738 41.552a3.255 3.255 0 0 0 3.261 1.02q28.337-5.017 56.69-9.935 28.263-4.929 56.53-9.841c15.185-2.642 30.327-5.58 45.57-7.834 14.257-2.108 26.2 6.058 29.79 19.112a25.824 25.824 0 0 1-11.772 29.337q-42.03 24.723-84.163 49.269-42.839 25-85.732 49.9a40.408 40.408 0 0 0-3.53 2.054c-6.331 4.609-13.444 6.1-21.1 5.269a15.311 15.311 0 0 1-4.96-1.371q-24.124-11.756-48.173-23.664c-13.149-6.509-26.249-13.116-39.4-19.622a7.886 7.886 0 0 0-3.35-.748c-6.319-.031-12.638.074-18.957.064-1.22 0-1.829.24-2.148 1.592-.9 3.825-3.342 5.82-7.245 5.915-6.069.148-12.141.188-18.211.193q-34.385.032-68.769.011c-2.522 0-2.525 0-2.527-2.509.004-4.38.004-8.76.004-13.359zM243.522 389.7c2.582 2.688 4.9 5 7.1 7.409 11.559 12.684 11.117 31.148-1 43.184-11.587 11.506-30.768 11.77-42.467.373s-23.221-23.023-34.843-34.523c-2.631-2.6-5.359-5.107-7.744-7.374l11.666-11.78c1.1 1.168 2.287 2.514 3.56 3.777 12.7 12.612 25.38 25.246 38.17 37.766a15.571 15.571 0 0 0 5.718 3.6c6.558 2.191 13.254-.558 16.979-6.219 3.223-4.9 2.6-13.276-2.084-17.937-21.037-20.915-41.878-42.027-62.832-63.026a3.768 3.768 0 0 0-2.441-.906q-37.08-.071-74.159-.062c-1.4 0-1.936.3-1.934 1.838q.06 46.728 0 93.456c0 1.458.426 1.892 1.894 1.889 7.186-.018 14.372.135 21.557.094a12.839 12.839 0 0 1 6.024 1.461q43.1 21.592 86.238 43.1a10.622 10.622 0 0 0 10.449-.3c4.809-2.691 9.572-5.463 14.332-8.241q45.966-26.823 91.917-53.673 35.271-20.644 70.486-41.384c4.549-2.664 5.424-7.4 4.251-11.587a9.447 9.447 0 0 0-10.275-6.727 49.557 49.557 0 0 0-3.688.453c-16.656 2.808-33.316 5.589-49.962 8.459q-40.627 7-81.24 14.1c-5.055.887-10.094 1.79-15.672 2.78zM64.575 335.859v2.734l.021 21.171.076 86.728c0 2.673.005 2.679 2.748 2.685q5.388.009 10.775 0c2.681 0 2.684 0 2.688-2.738q.066-54.042.13-108.085a4.254 4.254 0 0 0-.044-1.471 1.61 1.61 0 0 0-.956-.982c-5.061-.061-10.122-.042-15.438-.042z" fill-rule="evenodd"></path>
	</symbol>
	<symbol xmlns="http://www.w3.org/2000/svg" viewBox="0 0 420 507" id="selected-cv">
		<path d="M16.91 168.27a9.892 9.892 0 1 0 2.9 7 9.972 9.972 0 0 0-2.9-7zM390.283 0H189.86a9.903 9.903 0 1 0 0 19.806h200.424a9.916 9.916 0 0 1 9.906 9.9v447.587a9.915 9.915 0 0 1-9.906 9.9H29.719a9.915 9.915 0 0 1-9.906-9.9V212.24a9.906 9.906 0 0 0-19.812 0v265.053A29.746 29.746 0 0 0 29.718 507h360.565A29.747 29.747 0 0 0 420 477.293V29.707A29.746 29.746 0 0 0 390.283 0zM210 39.61a133.385 133.385 0 0 0-20.133 1.529 9.902 9.902 0 1 0 3 19.576A113.268 113.268 0 0 1 210 59.416a111.828 111.828 0 0 1 85.613 183.9 99.232 99.232 0 0 0-51.711-43.26 48.363 48.363 0 0 0 14.639-34.68v-9.655a48.539 48.539 0 0 0-97.078 0v9.655a48.357 48.357 0 0 0 14.639 34.68 99.25 99.25 0 0 0-51.818 43.436 111.516 111.516 0 0 1-24.671-53.521 9.906 9.906 0 0 0-19.539 3.275A131.769 131.769 0 0 0 210 303.016c72.644 0 131.745-59.082 131.745-131.7S282.645 39.61 210 39.61zm-28.725 116.105a28.726 28.726 0 0 1 57.452 0v9.654a28.726 28.726 0 0 1-57.452 0v-9.654zM210 283.208a111.822 111.822 0 0 1-71.018-25.233 79.244 79.244 0 0 1 141.95-.168A111.436 111.436 0 0 1 210 283.208zm91.485 110.906H160.827a9.903 9.903 0 1 0 0 19.807h140.66a9.904 9.904 0 1 0-.001-19.807zm-175.97-52.553a9.893 9.893 0 1 0 2.9 7 9.979 9.979 0 0 0-2.9-7zm0 55.453a9.892 9.892 0 1 0 2.9 7 9.957 9.957 0 0 0-2.9-7zm175.971-58.353H160.827a9.902 9.902 0 1 0 0 19.805h140.66a9.903 9.903 0 1 0-.001-19.805zM116.517 57.066a9.911 9.911 0 0 0-14.01 0L70.248 89.314l-11.023-11.02A9.905 9.905 0 0 0 45.215 92.3l18.028 18.022a9.91 9.91 0 0 0 14.009 0l39.264-39.251a9.9 9.9 0 0 0 .001-14.005zM81.227 0a81.2 81.2 0 1 0 81.227 81.2A81.3 81.3 0 0 0 81.227 0zm0 142.594A61.395 61.395 0 1 1 142.642 81.2a61.475 61.475 0 0 1-61.415 61.394z" fill-rule="evenodd"></path>
	</symbol>
	<symbol xmlns="http://www.w3.org/2000/svg" viewBox="0 0 497 497" id="settings">
		<path d="M404.807 340.446a10.112 10.112 0 0 0-14.3 14.3l19.66 19.661a24.929 24.929 0 0 1 0 35.258l-.5.5a24.933 24.933 0 0 1-35.258 0l-19.659-19.657a10.111 10.111 0 0 0-12.755-1.267 167.265 167.265 0 0 1-60.08 24.908 10.112 10.112 0 0 0-8.125 9.916v27.779a24.961 24.961 0 0 1-24.931 24.932h-.709a24.959 24.959 0 0 1-24.93-24.932v-27.78a10.114 10.114 0 0 0-8.126-9.916 167.261 167.261 0 0 1-60.08-24.908 10.116 10.116 0 0 0-12.758 1.267l-19.659 19.658a24.933 24.933 0 0 1-35.257 0l-.5-.5a24.932 24.932 0 0 1 0-35.259l19.659-19.66a10.112 10.112 0 0 0 1.267-12.755 167.26 167.26 0 0 1-24.914-60.081 10.115 10.115 0 0 0-9.916-8.125H45.158a24.957 24.957 0 0 1-24.93-24.928v-.71a24.959 24.959 0 0 1 24.93-24.93h27.779a10.114 10.114 0 0 0 9.917-8.125 167.268 167.268 0 0 1 24.912-60.079 10.114 10.114 0 0 0-1.268-12.758L86.837 122.6a24.933 24.933 0 0 1 0-35.26l.5-.5a24.928 24.928 0 0 1 35.257 0l19.659 19.66a10.114 10.114 0 0 0 14.3-14.3L136.9 72.536a45.15 45.15 0 0 0-63.862 0l-.5.5a45.156 45.156 0 0 0 0 63.864l13.93 13.929a187.033 187.033 0 0 0-21.63 52.159h-19.68A45.209 45.209 0 0 0 0 248.146v.71a45.208 45.208 0 0 0 45.158 45.156h19.676a186.954 186.954 0 0 0 21.63 52.159L72.536 360.1a45.155 45.155 0 0 0 0 63.863l.5.5a45.153 45.153 0 0 0 63.862 0l13.931-13.929a186.987 186.987 0 0 0 52.16 21.629v19.674A45.211 45.211 0 0 0 248.147 497h.709a45.21 45.21 0 0 0 45.157-45.161v-19.674a186.95 186.95 0 0 0 52.16-21.629l13.927 13.929a45.155 45.155 0 0 0 63.864 0l.5-.5a45.151 45.151 0 0 0 0-63.86zm47.034-137.457h-19.676a186.971 186.971 0 0 0-21.628-52.159l13.93-13.93a45.207 45.207 0 0 0 0-63.864l-.5-.5a45.151 45.151 0 0 0-63.86 0l-13.934 13.929a186.957 186.957 0 0 0-52.16-21.628V45.161A45.211 45.211 0 0 0 248.854 0h-.708a45.211 45.211 0 0 0-45.159 45.161v27.777a10.114 10.114 0 0 0 20.228 0V45.161a24.96 24.96 0 0 1 24.931-24.933h.708a24.959 24.959 0 0 1 24.93 24.933v27.777a10.119 10.119 0 0 0 8.125 9.917 167.284 167.284 0 0 1 60.08 24.91 10.114 10.114 0 0 0 12.755-1.268l19.662-19.659a24.931 24.931 0 0 1 35.258 0l.5.5a24.934 24.934 0 0 1 0 35.258l-19.659 19.658a10.113 10.113 0 0 0-1.268 12.758 167.262 167.262 0 0 1 24.91 60.079 10.115 10.115 0 0 0 9.916 8.125h27.778a24.959 24.959 0 0 1 24.931 24.93v.71a24.957 24.957 0 0 1-24.931 24.928h-27.778a10.115 10.115 0 0 0 0 20.23h27.778A45.21 45.21 0 0 0 497 248.857v-.71a45.208 45.208 0 0 0-45.159-45.158zM248.5 286.6a37.661 37.661 0 0 1-23.97-8.484 10.114 10.114 0 1 0-12.736 15.714 58.328 58.328 0 1 0-21.621-45.33 10.114 10.114 0 0 0 20.228 0 38.1 38.1 0 1 1 38.099 38.1z" fill-rule="evenodd"></path>
	</symbol>
	<symbol xmlns="http://www.w3.org/2000/svg" viewBox="0 0 434 504" id="shared-cv">
		<path d="M391.319 43.8h-305.5a42.864 42.864 0 0 0-42.788 42.8v374.6A42.864 42.864 0 0 0 85.816 504h241.4a13.17 13.17 0 0 0 9.4-3.957l93.584-94.856a13.1 13.1 0 0 0 3.8-9.3V86.6a42.743 42.743 0 0 0-42.681-42.8zm-54.188 422.28V425.9a19.887 19.887 0 0 1 19.878-19.835h39.5zm73.089-81.753H358.6a43.455 43.455 0 0 0-43.4 43.42v52.926H83.556a16.619 16.619 0 0 1-16.59-16.6V83.776a16.619 16.619 0 0 1 16.59-16.6H393.63a16.619 16.619 0 0 1 16.59 16.6v300.549zm-80.741-44.654H147.656a11.819 11.819 0 0 1 0-23.637h181.823a11.819 11.819 0 0 1 0 23.635zm-102.725 56.47h-79.1a11.819 11.819 0 0 1 0-23.637h79.1a11.819 11.819 0 0 1 0 23.637zm48.537-203.073a49.821 49.821 0 1 0-73.448 0 94.063 94.063 0 0 0-57.269 86.584 11.814 11.814 0 1 0 23.627 0 70.367 70.367 0 1 1 140.733 0 11.813 11.813 0 1 0 23.626 0 94.062 94.062 0 0 0-57.269-86.584zm-36.724-59.862a26.206 26.206 0 1 1-26.195 26.206 26.179 26.179 0 0 1 26.195-26.206zM348.288 0H42.785A42.864 42.864 0 0 0 0 42.8v374.6a42.864 42.864 0 0 0 42.785 42.8L46 460c.046-.842 0-2.644 0-3-.025-3.2-.1-3.443 0-6 .015-.384-.053-1.642 0-2-.255-1.048.078-3.08 0-4-.314-3.71-.01-4.293 0-8l-5.475-.129a16.619 16.619 0 0 1-16.59-16.6V39.978a16.619 16.619 0 0 1 16.59-16.6H350.6a16.62 16.62 0 0 1 16.591 16.6L367 46h24l-.03-3.2A42.743 42.743 0 0 0 348.288 0z" fill-rule="evenodd"></path>
	</symbol>
	<symbol xmlns="http://www.w3.org/2000/svg" viewBox="0 0 512 512" id="remove-offer">
		<path d="M436.124,59.69H329.557c-2.897-14.442-9.953-28.011-20.463-38.237c-27.939-28.702-78.54-28.408-105.893-0.293
			c-10.73,10.446-17.841,24.072-20.754,38.53H75.877c-24.831,0-45.031,20.2-45.031,45.031v31.021c0,8.297,6.714,15.01,15.01,15.01
			h420.288c8.297,0,15.01-6.714,15.01-15.01v-31.021C481.154,79.89,460.955,59.69,436.124,59.69z M213.535,59.69
			c2.229-6.259,5.893-12.439,10.891-17.305c16.534-16.975,46.321-17.268,63.442,0.293c4.822,4.691,8.414,10.796,10.612,17.012
			H213.535z" fill-rule="evenodd"></path>
		<path d="M64.561,180.773L88.556,470.81C90.8,494.293,110.134,512,133.514,512h244.973c23.38,0,42.715-17.707,44.972-41.381
			l23.981-289.846H64.561z M180.949,405.928c0,8.297-6.714,15.01-15.01,15.01s-15.01-6.714-15.01-15.01V225.804
			c0-8.297,6.714-15.01,15.01-15.01s15.01,6.714,15.01,15.01V405.928z M271.01,405.928c0,8.297-6.714,15.01-15.01,15.01
			c-8.297,0-15.01-6.714-15.01-15.01V225.804c0-8.297,6.714-15.01,15.01-15.01c8.297,0,15.01,6.714,15.01,15.01V405.928z
			 M361.072,405.928c0,8.297-6.714,15.01-15.01,15.01c-8.297,0-15.01-6.714-15.01-15.01V225.804c0-8.297,6.714-15.01,15.01-15.01
			c8.297,0,15.01,6.714,15.01,15.01V405.928z" fill-rule="evenodd"></path>
	</symbol>

	<symbol xmlns="http://www.w3.org/2000/svg" viewBox="0 0 98.48 98.48" id="see-offer">
		<path d="M97.204,45.788c-0.865-1.02-21.537-24.945-47.963-24.945c-26.427,0-47.098,23.925-47.965,24.946
		c-1.701,2-1.701,4.902,0.001,6.904c0.866,1.02,21.537,24.944,47.964,24.944c26.426,0,47.098-23.926,47.964-24.946
		C98.906,50.691,98.906,47.789,97.204,45.788z M57.313,35.215c1.777-0.97,4.255,0.143,5.534,2.485
		c1.279,2.343,0.875,5.029-0.902,5.999c-1.776,0.971-4.255-0.143-5.535-2.485C55.132,38.871,55.535,36.185,57.313,35.215z
		 M49.241,68.969c-18.46,0-33.995-14.177-39.372-19.729c3.631-3.75,11.898-11.429,22.567-16.021
		c-2.081,3.166-3.301,6.949-3.301,11.021c0,11.104,9.001,20.105,20.105,20.105s20.106-9.001,20.106-20.105
		c0-4.072-1.219-7.855-3.3-11.021C76.715,37.812,84.981,45.49,88.612,49.24C83.235,54.795,67.7,68.969,49.241,68.969z" fill-rule="evenodd"></path>
	</symbol>

	<symbol xmlns="http://www.w3.org/2000/svg" viewBox="0 0 232.679 232.679" id="hold-offer">
		<path d="M80.543,0H35.797c-9.885,0-17.898,8.014-17.898,17.898v196.883
		c0,9.885,8.013,17.898,17.898,17.898h44.746c9.885,0,17.898-8.013,17.898-17.898V17.898C98.44,8.014,90.427,0,80.543,0z M196.882,0
		h-44.746c-9.886,0-17.899,8.014-17.899,17.898v196.883c0,9.885,8.013,17.898,17.899,17.898h44.746
		c9.885,0,17.898-8.013,17.898-17.898V17.898C214.781,8.014,206.767,0,196.882,0z" fill-rule="evenodd"></path>
	</symbol>

	<symbol xmlns="http://www.w3.org/2000/svg" viewBox="-18 -64 586.66669 586" id="archive-offer">
		<path d="m148.75 72.25h252.5v61.25h-252.5zm0 0" fill-rule="evenodd"></path>
		<path d="m111.25 153.5h335v90h-335zm0 0" fill-rule="evenodd"></path>
		<path d="m91.25 143.132812c0-5.519531 4.976562-9.632812 10.5-9.632812h27v-71.316406c0-5.523438 4.976562-9.933594 10.5-9.933594h271.5c5.523438 0 10.5 4.410156 10.5 9.933594v71.316406h34.5c5.523438 0 10.5 4.113281 10.5 9.632812v100.367188h79.625l-88.414062-222.074219c-.042969-.101562-.082032-.351562-.125-.460937-5.152344-14.335938-18.28125-23.714844-32.667969-23.714844h-299.339844c-14.386719 0-27.515625 9.515625-32.675781 23.851562-.035156.105469-.078125.09375-.117188.203126l-88.410156 222.195312h87.125zm0 0" fill-rule="evenodd"></path>
		<path d="m35 454.75h480c19.296875 0 35-16.25 35-36.851562v-154.398438h-550v154.398438c0 20.601562 15.703125 36.851562 35 36.851562zm113.75-133.75c0-5.523438 4.476562-10 10-10h232.5c5.523438 0 10 4.476562 10 10v72.5c0 5.523438-4.476562 10-10 10h-232.5c-5.523438 0-10-4.476562-10-10zm0 0"/>
		<path d="m168.75 331h212.5v52.5h-212.5zm0 0" fill-rule="evenodd"></path>

	</symbol>

	<symbol xmlns="http://www.w3.org/2000/svg" viewBox="0 -1 401.52289 401" id="edit-offer">
		<path d="m370.589844 250.972656c-5.523438 0-10 4.476563-10 10v88.789063c-.019532 16.5625-13.4375 29.984375-30 30h-280.589844c-16.5625-.015625-29.980469-13.4375-30-30v-260.589844c.019531-16.558594 13.4375-29.980469 30-30h88.789062c5.523438 0 10-4.476563 10-10 0-5.519531-4.476562-10-10-10h-88.789062c-27.601562.03125-49.96875 22.398437-50 50v260.59375c.03125 27.601563 22.398438 49.96875 50 50h280.589844c27.601562-.03125 49.96875-22.398437 50-50v-88.792969c0-5.523437-4.476563-10-10-10zm0 0" fill-rule="evenodd"></path>
		<path d="m376.628906 13.441406c-17.574218-17.574218-46.066406-17.574218-63.640625 0l-178.40625 178.40625c-1.222656 1.222656-2.105469 2.738282-2.566406 4.402344l-23.460937 84.699219c-.964844 3.472656.015624 7.191406 2.5625 9.742187 2.550781 2.546875 6.269531 3.527344 9.742187 2.566406l84.699219-23.464843c1.664062-.460938 3.179687-1.34375 4.402344-2.566407l178.402343-178.410156c17.546875-17.585937 17.546875-46.054687 0-63.640625zm-220.257812 184.90625 146.011718-146.015625 47.089844 47.089844-146.015625 146.015625zm-9.40625 18.875 37.621094 37.625-52.039063 14.417969zm227.257812-142.546875-10.605468 10.605469-47.09375-47.09375 10.609374-10.605469c9.761719-9.761719 25.589844-9.761719 35.351563 0l11.738281 11.734375c9.746094 9.773438 9.746094 25.589844 0 35.359375zm0 0" fill-rule="evenodd"></path>
	</symbol>

	<symbol xmlns="http://www.w3.org/2000/svg" viewBox="0 0 886.075 886.075" id="experience-woman-candidat">
		<path d="M146.729,819.94c-13.167,19.252-8.107,45.626,11.249,58.793c19.318,13.158,45.653,8.153,58.762-11.222
			c6.566-9.592,72.779-106.505,137.149-201.093l-51.372-74.999C228.235,700.551,151.64,812.642,146.729,819.94z" fill-rule="evenodd"></path>
		<path d="M266.739,76.551c0,42.342,34.312,76.644,76.637,76.644c42.305,0,76.595-34.302,76.595-76.644
			C419.971,34.256,385.681,0,343.376,0C301.051,0,266.739,34.255,266.739,76.551z" fill-rule="evenodd"></path>
		<path d="M727.147,503.682h-59.859V472.97c0-8.284-6.717-15-15-15h-31.868c0.821-7.305-0.869-14.922-5.363-21.49
			c-5.7-8.276-161.169-234.389-161.169-234.389c-11.663-16.92-28.009-24.424-45.747-24.424H287.225
			c-15.123,0-32.015,6.264-42.172,20.127c0,0-72.441,99.168-88.561,121.121c-4.76,6.479-6.62,14.173-6.039,21.594
			c0,15.931-0.037,96.291-0.111,120.763c-0.019,17.663,14.257,31.913,31.807,31.913c17.607,0.046,31.959-14.221,32.017-31.838
			c0-7.487,0-78.252,0.075-113.333c9.348-12.773,27.425-37.461,45.803-62.526v152.555c0,34.685,4.457,63.081,22.084,89.011
			c53.385,77.847,222.397,324.658,233.119,340.459c13.167,19.375,39.464,24.38,58.84,11.222
			c19.337-13.167,24.341-39.541,11.229-58.793c-3.239-4.762-39.198-57.272-85.139-124.311h226.97
			c10.785,0,19.529-8.743,19.529-19.529V523.21C746.675,512.425,737.932,503.682,727.147,503.682z M518.279,472.97v30.712h-57.772
			c-10.785,0-19.528,8.743-19.528,19.529v86.054c-6.422-9.367-12.856-18.752-19.258-28.085V267.712
			c41.493,60.346,105.285,153.169,130.768,190.258H533.28C524.996,457.97,518.279,464.686,518.279,472.97z M637.288,503.682h-89.009
			V487.97h89.009V503.682z" fill-rule="evenodd"></path>
	</symbol>
	<symbol xmlns="http://www.w3.org/2000/svg" viewBox="0 0 1000 1000" id="experience-candidat">
		<path d="M102.5,407.3l24.2,49.2c3,6,10.1,8.7,16.2,6.1l158.8-66.7c3.4-28.4,13.2-81.7,40.5-128.9L107.9,390.6C101.8,393.7,99.4,401.2,102.5,407.3L102.5,407.3z" fill-rule="evenodd"></path>
		<path d="M672.3,977.7L510,685.1l-78.9,120.6L558.3,990h113.9C674.3,986.3,674.5,981.7,672.3,977.7L672.3,977.7z" fill-rule="evenodd"></path>
		<path d="M895.1,581.8L786.2,451c-5.7-6.8-15.9-7.8-22.7-2.1l-53.9,44.9L695,476.4c-5.9-7.2-14.7-11.3-24.1-11.3c-6.4,0-12.7,2.1-18,5.8L474.4,247.7c-5.4-10.4-14.7-18.3-25.9-21.9c-1.2-0.4-2.4-0.7-3.6-0.9c-31.8,13.1-53.9,37.8-69.3,65.3c-16.7,29.8-25.5,62.6-30.1,87.3c-1.3,7-2.3,13.4-3,18.8v197c0,2-0.5,4-1.4,5.8L143.6,978.2c-2,3.8-1.8,8.2,0.1,11.8h106.1l153-225.5l64-94.3c7.3-10.7,12.5-22.6,15.6-35.1c2.2-8.6,3.3-17.6,3.3-26.6V409.4l36.9,40.5l67.5,74.1c-3.7,4.7-6,10.4-6.5,16.5c-0.8,8.3,1.8,16.4,7.1,22.8l14.5,17.5l-53.9,44.9c-6.8,5.7-7.8,15.9-2.1,22.7l109,130.8c5.7,6.8,15.9,7.8,22.7,2.1L893,604.5C899.9,598.8,900.8,588.7,895.1,581.8L895.1,581.8z M627.1,562.5l-14.5-17.4c-0.3-0.4-0.5-0.9-0.6-1.4l60.1-49l-0.9-1c0.7,0,1.5,0.4,2,1l14.5,17.4L627.1,562.5L627.1,562.5z" fill-rule="evenodd"></path>
		<path d="M427,185c3.3,0,6.5-0.2,9.7-0.6c5.3-0.6,10.5-1.6,15.5-3.2c36-10.8,62.3-44.2,62.3-83.8c0-48.4-39.2-87.5-87.5-87.5s-87.5,39.2-87.5,87.5C339.4,145.8,378.6,185,427,185L427,185z" fill-rule="evenodd"></path>

	</symbol>
	<symbol xmlns="http://www.w3.org/2000/svg" viewBox="0 -13 512.00103 512" id="post-candidat">
		<path d="m188.25 51.703125c0-11.507813 9.363281-20.875 20.875-20.875h93.742188c11.511718 0 20.875 9.367187 20.875 20.875v17.144531h30.828124v-17.144531c0-28.507813-23.191406-51.703125-51.703124-51.703125h-93.742188c-28.511719 0-51.703125 23.195312-51.703125 51.703125v17.144531h30.828125zm0 0" fill-rule="evenodd"></path>
		<path d="m397.996094 259.46875v21.800781c0 8.511719-6.902344 15.414063-15.417969 15.414063-8.511719 0-15.414063-6.902344-15.414063-15.414063v-21.800781h-222.328124v21.800781c0 8.511719-6.902344 15.414063-15.414063 15.414063-8.515625 0-15.414063-6.902344-15.414063-15.414063v-21.800781h-114.007812v176.773438c0 27.480468 22.355469 49.839843 49.839844 49.839843h412.320312c27.484375 0 49.839844-22.359375 49.839844-49.839843v-176.773438zm0 0" fill-rule="evenodd"></path>
		<path d="m114.007812 228.636719v-21.800781c0-8.511719 6.898438-15.414063 15.414063-15.414063 8.511719 0 15.414063 6.902344 15.414063 15.414063v21.800781h222.328124v-21.800781c0-8.511719 6.902344-15.414063 15.414063-15.414063 8.515625 0 15.417969 6.902344 15.417969 15.414063v21.800781h114.003906v-79.121094c0-27.480469-22.355469-49.839844-49.839844-49.839844h-412.320312c-27.484375 0-49.839844 22.359375-49.839844 49.839844v79.121094zm0 0" fill-rule="evenodd"></path>
	</symbol>

	<symbol xmlns="http://www.w3.org/2000/svg" viewBox="0 0 512 512" id="disponibilty-candidat">
		<path d="M492,352c11.046,0,20-8.954,20-20V120c0-44.112-35.888-80-80-80h-26V20c0-11.046-8.954-20-20-20
				c-11.046,0-20,8.954-20,20v20h-91V20c0-11.046-8.954-20-20-20s-20,8.954-20,20v20h-90V20c0-11.046-8.954-20-20-20
				s-20,8.954-20,20v20H80C35.888,40,0,75.888,0,120v312c0,44.112,35.888,80,80,80h352c44.112,0,80-35.888,80-80
				c0-11.046-8.954-20-20-20c-11.046,0-20,8.954-20,20c0,22.056-17.944,40-40,40H80c-22.056,0-40-17.944-40-40V120
				c0-22.056,17.944-40,40-40h25v20c0,11.046,8.954,20,20,20s20-8.954,20-20V80h90v20c0,11.046,8.954,20,20,20
				c11.046,0,20-8.954,20-20V80h91v20c0,11.046,8.954,20,20,20c11.046,0,20-8.954,20-20V80h26c22.056,0,40,17.944,40,40v212
				C472,343.046,480.954,352,492,352z" fill-rule="evenodd"></path>
		<path d="M344.738,209.358l-98.581,137.7c-2.692,3.122-6.066,3.796-7.874,3.916c-1.862,0.13-5.473-0.115-8.571-3.063
				l-63.82-61.281c-7.971-7.651-20.631-7.393-28.278,0.574c-7.65,7.967-7.394,20.628,0.573,28.278l63.884,61.341
				c9.568,9.108,22.34,14.175,35.479,14.175c1.129,0,2.261-0.037,3.393-0.113c14.314-0.954,27.679-7.915,36.666-19.097
				c0.232-0.29,0.456-0.585,0.673-0.887l98.981-138.26c6.43-8.981,4.361-21.475-4.62-27.904
				C363.659,198.308,351.166,200.376,344.738,209.358z" fill-rule="evenodd"></path>
	</symbol>

	<symbol xmlns="http://www.w3.org/2000/svg" viewBox="0 0 512 512" id="entretien-candidat">
		<path d="M368.232,409.926l-45.045-45.274c-8.991-9.047-21.404-13.601-34.043-12.488c-12.488,1.095-23.742,7.609-30.876,17.873
			c-0.209,0.302-0.407,0.609-0.594,0.925l-7.404,12.486c-16.885-4.556-51.823-16.625-78.473-43.436
			c-26.477-26.638-38.402-61.739-42.9-78.69l12.515-7.279c0.327-0.191,0.647-0.393,0.96-0.607
			c10.306-7.071,16.888-18.285,18.06-30.766c1.185-12.637-3.291-25.073-12.287-34.123L103.1,143.273
			c-13.137-13.218-32.919-16.513-49.221-8.205c-28.26,14.402-46.106,40.198-51.606,74.598
			c-10.254,64.132,24.35,147.052,88.16,211.25C147.103,477.932,218.694,512,278.999,512c7.601,0,15.026-0.541,22.217-1.646
			c34.445-5.293,60.355-22.982,74.927-51.153C384.551,442.948,381.374,423.148,368.232,409.926z M349.076,445.2
			c-10.056,19.439-27.717,31.226-52.49,35.034c-54.077,8.313-128.243-24.159-184.54-80.799
			c-56.294-56.636-88.316-130.964-79.682-184.956c3.955-24.737,15.849-42.32,35.352-52.259c1.549-0.79,3.255-1.171,4.977-1.171
			c3.166,0,6.39,1.29,8.797,3.712l45.047,45.274c2.597,2.614,3.893,6.181,3.554,9.789c-0.185,1.962-1.03,5.581-4.588,8.22
			l-21.605,12.565c-5.465,3.177-8.4,9.4-7.376,15.639c0.411,2.506,10.574,61.898,53.661,105.247
			c43.085,43.347,102.439,53.9,104.944,54.327c6.222,1.063,12.453-1.819,15.672-7.248l12.75-21.503
			c2.661-3.552,6.29-4.378,8.255-4.55c3.613-0.32,7.169,1.001,9.773,3.619l45.045,45.274
			C350.335,435.147,351.343,440.816,349.076,445.2z" fill-rule="evenodd"></path>
		<path d="M362.982,200.435c-7.97,0-15.606,7.008-15.237,15.237c0.37,8.255,6.695,15.237,15.237,15.237
			c7.97,0,15.606-7.008,15.237-15.237C377.849,207.416,371.523,200.435,362.982,200.435z" fill-rule="evenodd"></path>
		<path d="M362.98,66.86c-26.59,0-48.222,21.633-48.222,48.222c0,8.415,6.822,15.237,15.237,15.237
			c8.415,0,15.237-6.822,15.237-15.237c0-9.787,7.962-17.749,17.749-17.749c9.787,0,17.749,7.963,17.749,17.749
			c0,9.787-7.963,17.749-17.749,17.749c-8.415,0-15.237,6.822-15.237,15.237v23.715c0,8.415,6.822,15.237,15.237,15.237
			c8.416,0,15.237-6.821,15.237-15.237v-10.944c19.147-6.391,32.986-24.488,32.986-45.756C411.202,88.492,389.57,66.86,362.98,66.86
			z" fill-rule="evenodd"></path>
		<path d="M467.722,43.785C438.851,14.915,400.446-0.636,359.594,0.02c-39.404,0.625-76.389,16.529-104.141,44.784
			c-27.746,28.248-42.992,65.511-42.931,104.925c0.034,21.955,4.95,43.783,14.266,63.543l-19.185,55.834
			c-3.428,9.976-0.923,20.807,6.536,28.266c5.25,5.251,12.17,8.045,19.287,8.045c2.995,0,6.025-0.495,8.98-1.51l55.834-19.185
			c19.759,9.316,41.587,14.232,63.543,14.266c0.08,0,0.156,0,0.236,0c39.324-0.001,76.498-15.242,104.69-42.932
			c28.254-27.751,44.158-64.737,44.783-104.141C512.137,111.057,496.593,72.656,467.722,43.785z M481.021,151.428
			c-1.024,64.601-54.389,117.084-119.008,117.084c-0.059,0-0.125,0-0.185,0c-19.285-0.029-38.433-4.782-55.376-13.746
			c-3.723-1.97-8.094-2.31-12.077-0.942l-55.901,19.209l19.208-55.9c1.368-3.983,1.028-8.354-0.942-12.077
			c-8.963-16.942-13.716-36.09-13.746-55.375c-0.101-64.697,52.423-118.166,117.082-119.192c0.653-0.01,1.302-0.015,1.954-0.015
			c31.802,0,61.619,12.336,84.144,34.858C469.162,88.317,481.536,118.893,481.021,151.428z" fill-rule="evenodd"></path>
	</symbol>
	<symbol xmlns="http://www.w3.org/2000/svg" viewBox="0 0 368.625 368.625" id="cv-envelope">
		<path d="M356.125,50.318H12.5c-6.903,0-12.5,5.597-12.5,12.5v242.988c0,6.902,5.597,12.5,12.5,12.5h343.625
			c6.902,0,12.5-5.598,12.5-12.5V62.818C368.625,55.916,363.027,50.318,356.125,50.318z M343.625,293.307H25V75.318h318.625V293.307
			z" fill-rule="evenodd"></path>
		<path d="M57.755,134.201l120,73.937c2.01,1.239,4.283,1.858,6.557,1.858s4.547-0.619,6.557-1.858l120-73.937
			c5.877-3.621,7.707-11.322,4.086-17.199s-11.324-7.707-17.199-4.085l-113.444,69.896L70.869,112.917
			c-5.875-3.619-13.576-1.793-17.199,4.085C50.048,122.878,51.877,130.58,57.755,134.201z" fill-rule="evenodd"></path>
	</symbol>
	<symbol xmlns="http://www.w3.org/2000/svg" viewBox="0 0 512 512" id="cv-arrow-up">
		<path d="m20 511.984375c-11.046875 0-20-8.957031-20-20v-32c0-87.613281 34.117188-169.980469 96.070312-231.933594 61.953126-61.953125 144.320313-96.070312 231.933594-96.070312l.003906-91.921875c0-16.238282 9.695313-30.75 24.707032-36.976563 15.03125-6.234375 32.183594-2.839843 43.695312 8.648438l97.960938 97.757812c11.367187 11.34375 17.628906 26.433594 17.628906 42.492188 0 16.058593-6.261719 31.152343-17.628906 42.496093l-97.960938 97.753907c-11.515625 11.488281-28.664062 14.886719-43.695312 8.648437-15.011719-6.222656-24.707032-20.738281-24.707032-36.972656v-21.925781c0-11.042969 8.953126-20 20-20 11.042969 0 20 8.957031 20 20v21.925781.011719c.03125.015625.070313.03125.101563.042969.015625-.015626.03125-.027344.046875-.042969l97.960938-97.757813c3.792968-3.785156 5.882812-8.820312 5.882812-14.179687s-2.089844-10.394531-5.882812-14.179688l-97.960938-97.753906c-.015625-.015625-.03125-.03125-.046875-.042969-.03125.011719-.070313.023438-.101563.042969v.011719 91.921875c0 22.058593-17.945312 40-40 40-158.808593 0-288.007812 129.199219-288.007812 288.003906v32c0 11.042969-8.953125 20-20 20zm348.019531-247.890625h.007813zm0 0" fill-rule="evenodd"></path>
	</symbol>
	<symbol xmlns="http://www.w3.org/2000/svg" viewBox="0 0 511.999 511.999" id="cv-link">
		<path d="M474.678,37.748c-4.688-4.683-9.609-9.006-14.622-12.848l-0.954-0.732c-0.609-0.58-1.257-1.123-1.938-1.624
			C436.847,7.585,414.557,0,390.912,0c-36.893,0-75.269,18.835-110.98,54.467c-0.348,0.348-0.683,0.708-1.005,1.08l-1.567,1.813
			l-1.819,1.573c-0.37,0.32-0.728,0.653-1.073,0.999C238.835,95.62,220,133.997,220,170.912c0,15.777,3.686,31.492,10.953,46.709
			c0.376,0.787,0.803,1.548,1.278,2.279c1.511,2.325,7.046,10.75,12.952,18.632l-82.326,82.326c-7.811,7.811-7.811,20.475,0,28.285
			C166.762,353.048,171.881,355,177,355s10.237-1.952,14.143-5.857l48.08-48.08c2.07,3.577,4.111,7.34,5.809,10.722
			c4.624,9.736,6.969,19.594,6.969,29.302c0,25.931-14.611,54.345-42.268,82.209l-2.354,2.035c-0.732,0.634-1.418,1.319-2.052,2.052
			l-2.026,2.345C175.415,457.385,146.998,472,121.087,472c-14.418,0-28.262-4.632-41.173-13.771
			c-0.41-0.373-0.837-0.729-1.278-1.067l-2.354-1.806c-3.638-2.788-7.236-5.954-10.696-9.409
			c-16.977-16.953-25.585-35.469-25.585-55.032c0-25.934,14.615-54.352,42.271-82.215l2.354-2.038
			c0.727-0.629,1.407-1.31,2.036-2.037l2.032-2.348c26.433-26.22,53.224-40.85,77.51-42.313
			c11.025-0.665,19.425-10.142,18.76-21.168c-0.665-11.025-10.149-19.432-21.168-18.76c-34.825,2.1-69.771,20.414-103.864,54.432
			c-0.345,0.346-0.678,0.703-0.997,1.072l-1.576,1.82l-1.824,1.579c-0.366,0.317-0.722,0.648-1.064,0.991
			c-35.635,35.688-54.47,74.065-54.47,110.984c0,30.568,12.557,58.607,37.321,83.337c4.688,4.683,9.609,9.006,14.622,12.848
			l0.954,0.732c0.609,0.58,1.257,1.123,1.938,1.624c20.317,14.959,42.607,22.544,66.252,22.544
			c36.893,0,75.269-18.835,110.98-54.467c0.348-0.348,0.683-0.708,1.005-1.08l1.567-1.813l1.819-1.573
			c0.37-0.32,0.728-0.653,1.073-0.999C273.165,416.379,292,378.002,292,341.087c0-15.775-3.686-31.49-10.953-46.707
			c-0.052-0.108-0.104-0.217-0.158-0.324c-1.358-2.717-6.47-12.729-12.584-22.075l80.838-80.838c7.811-7.811,7.811-20.475,0-28.285
			c-7.811-7.81-20.475-7.811-28.285,0l-47.04,47.04c-2.622-3.684-5.25-7.538-7.308-10.665c-4.32-9.416-6.51-18.938-6.51-28.321
			c0-25.931,14.611-54.345,42.268-82.209l2.354-2.035c0.732-0.634,1.418-1.319,2.052-2.052l2.026-2.345
			C336.584,54.614,365.001,40,390.912,40c14.418,0,28.262,4.632,41.173,13.771c0.41,0.373,0.837,0.729,1.278,1.067l2.354,1.806
			c3.638,2.788,7.236,5.954,10.696,9.409c16.977,16.953,25.585,35.469,25.585,55.032c0,25.935-14.612,54.351-42.271,82.216
			l-2.354,2.037c-0.727,0.629-1.407,1.31-2.036,2.037l-2.03,2.347c-25.71,25.486-52.845,39.769-78.512,41.316
			c-11.025,0.665-19.425,10.142-18.76,21.168c0.641,10.616,9.449,18.797,19.945,18.797c0.404,0,0.813-0.013,1.223-0.037
			c35.728-2.154,71.988-20.632,104.864-53.434c0.345-0.346,0.678-0.703,0.997-1.072l1.576-1.821l1.824-1.578
			c0.366-0.317,0.722-0.648,1.064-0.991c35.635-35.688,54.47-74.065,54.47-110.984C511.999,90.517,499.442,62.478,474.678,37.748z" fill-rule="evenodd"></path>
	</symbol>
	<symbol xmlns="http://www.w3.org/2000/svg" viewBox="0 0 512 512" id="cv-map">
		<path d="M256,0C153.755,0,70.573,83.182,70.573,185.426c0,126.888,165.939,313.167,173.004,321.035
			c6.636,7.391,18.222,7.378,24.846,0c7.065-7.868,173.004-194.147,173.004-321.035C441.425,83.182,358.244,0,256,0z M256,278.719
			c-51.442,0-93.292-41.851-93.292-93.293S204.559,92.134,256,92.134s93.291,41.851,93.291,93.293S307.441,278.719,256,278.719z" fill-rule="evenodd"></path>
	</symbol>
	<symbol xmlns="http://www.w3.org/2000/svg" viewBox="0 0 400.004 400.004" id="cv-arrow-long">
		<path d="M382.688,182.686H59.116l77.209-77.214c6.764-6.76,6.764-17.726,0-24.485c-6.764-6.764-17.73-6.764-24.484,0L5.073,187.757
		c-6.764,6.76-6.764,17.727,0,24.485l106.768,106.775c3.381,3.383,7.812,5.072,12.242,5.072c4.43,0,8.861-1.689,12.242-5.072
		c6.764-6.76,6.764-17.726,0-24.484l-77.209-77.218h323.572c9.562,0,17.316-7.753,17.316-17.315
		C400.004,190.438,392.251,182.686,382.688,182.686z" fill-rule="evenodd"></path>
	</symbol>
	<symbol xmlns="http://www.w3.org/2000/svg" viewBox="0 0 512 511" id="cv-arrow-down">
		<path d="m143.871094 512.484375c-10.398438 0-20.597656-4.0625-28.28125-11.734375l-97.960938-97.753906c-11.367187-11.34375-17.628906-26.433594-17.628906-42.492188s6.261719-31.152344 17.628906-42.496094l97.960938-97.753906c11.511718-11.492187 28.664062-14.886718 43.695312-8.652344 15.011719 6.226563 24.710938 20.742188 24.710938 36.976563v91.921875c158.804687 0 288.003906-129.199219 288.003906-288.003906v-31.996094c0-11.046875 8.953125-20 20-20s20 8.953125 20 20v31.996094c0 87.613281-34.117188 169.984375-96.070312 231.9375-61.953126 61.949218-144.320313 96.070312-231.933594 96.070312-22.058594 0-40.003906-17.945312-40.003906-40v-91.925781c0-.003906 0-.007813 0-.011719-.03125-.015625-.070313-.03125-.105469-.042968-.011719.015624-.027344.027343-.042969.042968l-97.960938 97.757813c-3.792968 3.785156-5.882812 8.820312-5.882812 14.179687s2.089844 10.394532 5.882812 14.179688l97.960938 97.753906.042969.042969c.035156-.011719.074219-.023438.105469-.039063 0-.003906 0-.007812 0-.015625v-21.921875c0-11.046875 8.957031-20 20.003906-20 11.042968 0 20 8.953125 20 20v21.921875c0 16.234375-9.699219 30.75-24.710938 36.976563-4.996094 2.074218-10.230468 3.082031-15.414062 3.082031zm0 0" fill-rule="evenodd"></path>
	</symbol>
	<symbol xmlns="http://www.w3.org/2000/svg" viewBox="0 0 512 512" id="candidat-brief">
		<path d="M469.333,106.667H362.667V85.333c0-23.531-19.135-42.667-42.667-42.667H192c-23.531,0-42.667,19.135-42.667,42.667
				v21.333H42.667C19.135,106.667,0,125.802,0,149.333v64C0,236.865,19.135,256,42.667,256h170.667v-10.667
				c0-5.896,4.771-10.667,10.667-10.667h64c5.896,0,10.667,4.771,10.667,10.667V256h170.667C492.865,256,512,236.865,512,213.333
				v-64C512,125.802,492.865,106.667,469.333,106.667z M320,106.667H192V85.333h128V106.667z" fill-rule="evenodd"></path>
		<path d="M506.083,267.51c-3.635-1.802-7.979-1.385-11.188,1.052c-7.583,5.74-16.417,8.771-25.563,8.771H298.667v32
				c0,5.896-4.771,10.667-10.667,10.667h-64c-5.896,0-10.667-4.771-10.667-10.667v-32H42.667c-9.146,0-17.979-3.031-25.563-8.771
				c-3.219-2.458-7.552-2.875-11.188-1.052C2.292,269.313,0,273.01,0,277.063v149.604c0,23.531,19.135,42.667,42.667,42.667h426.667
				c23.531,0,42.667-19.135,42.667-42.667V277.063C512,273.01,509.708,269.313,506.083,267.51z" fill-rule="evenodd"></path>
	</symbol>
	<symbol xmlns="http://www.w3.org/2000/svg" viewBox="0 0 348.077 348.077" id="candidat-tel">
		<path d="M340.273,275.083l-53.755-53.761c-10.707-10.664-28.438-10.34-39.518,0.744l-27.082,27.076
				c-1.711-0.943-3.482-1.928-5.344-2.973c-17.102-9.476-40.509-22.464-65.14-47.113c-24.704-24.701-37.704-48.144-47.209-65.257
				c-1.003-1.813-1.964-3.561-2.913-5.221l18.176-18.149l8.936-8.947c11.097-11.1,11.403-28.826,0.721-39.521L73.39,8.194
				C62.708-2.486,44.969-2.162,33.872,8.938l-15.15,15.237l0.414,0.411c-5.08,6.482-9.325,13.958-12.484,22.02
				C3.74,54.28,1.927,61.603,1.098,68.941C-6,127.785,20.89,181.564,93.866,254.541c100.875,100.868,182.167,93.248,185.674,92.876
				c7.638-0.913,14.958-2.738,22.397-5.627c7.992-3.122,15.463-7.361,21.941-12.43l0.331,0.294l15.348-15.029
				C350.631,303.527,350.95,285.795,340.273,275.083z" fill-rule="evenodd"></path>
	</symbol>
	<symbol xmlns="http://www.w3.org/2000/svg" viewBox="0 -44 512 512" id="candidat-etude">
		<path d="m512 0h-512v366.820312h177v-45h-91.480469l-7.226562-19.632812c-2.335938-6.34375-7.3125-11.320312-13.65625-13.65625l-19.636719-7.226562v-195.785157l19.636719-7.230469c6.34375-2.335937 11.320312-7.3125 13.65625-13.652343l7.226562-19.636719h340.960938l7.230469 19.636719c2.335937 6.34375 7.3125 11.320312 13.652343 13.652343l19.636719 7.230469v195.78125l-19.636719 7.230469c-6.34375 2.335938-11.316406 7.3125-13.652343 13.65625l-7.230469 19.632812h-91.480469v45h177zm0 0" fill-rule="evenodd"></path>
		<path d="m172.203125 275.796875c0-46.207031 37.589844-83.796875 83.796875-83.796875s83.796875 37.589844 83.796875 83.796875c0 5.480469-.542969 10.835937-1.554687 16.023437h67.3125c5.378906-14.605468 16.839843-26.066406 31.445312-31.441406v-153.933594c-14.605469-5.378906-26.066406-16.839843-31.445312-31.445312h-299.109376c-5.378906 14.605469-16.839843 26.066406-31.445312 31.445312v153.933594c14.605469 5.375 26.066406 16.835938 31.445312 31.441406h67.3125c-1.007812-5.1875-1.554687-10.542968-1.554687-16.023437zm-20.523437-119.613281c30.996093-20.664063 67.066406-31.582032 104.320312-31.582032s73.324219 10.921876 104.320312 31.582032l-16.640624 24.964844c-53.265626-35.511719-122.097657-35.511719-175.359376 0zm0 0" fill-rule="evenodd"></path>
		<path d="m305 343.710938c-13.789062 9.976562-30.714844 15.882812-49 15.882812s-35.210938-5.90625-49-15.882812v80.792968l49-25.582031 49 25.582031zm0 0" fill-rule="evenodd"></path>
		<path d="m309.796875 275.796875c0 29.710937-24.085937 53.796875-53.796875 53.796875s-53.796875-24.085938-53.796875-53.796875 24.085937-53.796875 53.796875-53.796875 53.796875 24.085938 53.796875 53.796875zm0 0" fill-rule="evenodd"></path>
	</symbol>
	<symbol xmlns="http://www.w3.org/2000/svg" viewBox="0 0 47 47" id="candidat-contract">
		<path d="M26.198,8.368H10.176c-1.18,0-2.137,0.957-2.137,2.136c0,1.179,0.957,2.136,2.137,2.136h16.022
				c1.182,0,2.137-0.957,2.137-2.136C28.334,9.325,27.379,8.368,26.198,8.368z"/>
		<path d="M28.334,18.515c0-1.18-0.955-2.136-2.137-2.136H10.176c-1.18,0-2.137,0.957-2.137,2.136c0,1.18,0.957,2.137,2.137,2.137
				h16.022C27.379,20.652,28.334,19.695,28.334,18.515z" fill-rule="evenodd"/>
		<path d="M18.188,28.663c1.18,0,2.136-0.957,2.136-2.136c0-1.18-0.956-2.137-2.136-2.137h-8.012c-1.18,0-2.137,0.957-2.137,2.137
				s0.957,2.136,2.137,2.136H18.188z" fill-rule="evenodd"/>
		<path d="M34.314,35.93l-2.241,1.479v5.318H4.301V4.273h27.772v8.442l4.273-7.401V2.136c0-1.18-0.957-2.136-2.137-2.136H2.164
				c-1.18,0-2.136,0.957-2.136,2.136v42.729c0,1.18,0.956,2.136,2.136,2.136h32.045c1.181,0,2.138-0.957,2.138-2.136V33.09
				l-1.021,1.766C35.077,35.287,34.727,35.658,34.314,35.93z" fill-rule="evenodd"/>
		<path d="M46.947,9.894c-0.044-0.192-0.495-1.918-3.213-3.488c-2.718-1.569-4.438-1.097-4.628-1.038
				c-0.255,0.081-0.47,0.253-0.604,0.485L25.15,28.979c-0.083,0.145-0.132,0.306-0.142,0.472l-0.5,8.345
				c-0.024,0.404,0.182,0.786,0.531,0.989c0.352,0.202,0.785,0.188,1.123-0.033l6.977-4.606c0.139-0.09,0.254-0.213,0.337-0.356
				L46.829,10.66C46.963,10.428,47.004,10.156,46.947,9.894z M28.854,35.055c-0.355-0.287-0.758-0.558-1.191-0.809
				c-0.435-0.251-0.871-0.462-1.297-0.628l0.149-2.502c0.557,0.073,1.383,0.299,2.432,0.903c1.048,0.605,1.655,1.209,1.999,1.654
				L28.854,35.055z" fill-rule="evenodd"/>
		<path d="M14.922,38.534c0.07,0.429,0.565,0.562,0.896,0.7c0.32,0.135,0.702-0.121,0.968-0.25c1.63-0.793,3.838,0.139,5.584,0.139
				c1.033,0,1.033-1.602,0-1.602c-2.036,0-3.73-0.515-5.748-0.182c0-0.117-0.043-0.275-0.169-0.49
				c-0.377-0.645-0.857-0.828-1.338-0.75c-0.032-0.076-0.063-0.152-0.108-0.229c-0.126-0.206-0.302-0.309-0.5-0.352
				c0.563-0.984,0.926-2.025,0.557-2.867c-0.113-0.256-0.434-0.387-0.692-0.397c-1.07-0.04-1.988,1.083-2.676,1.757
				c-1.721,1.687-3.237,3.602-4.704,5.508c-0.63,0.819,0.763,1.615,1.383,0.81c1.3-1.688,2.677-3.327,4.159-4.86
				c-0.357,0.586-0.736,1.161-1.135,1.715c-0.57,0.881,0.791,1.631,1.383,0.809c0.141-0.215,0.32-0.37,0.516-0.503
				c-0.039,0.099-0.079,0.196-0.119,0.296c0.002,0,0.004,0.001,0.006,0.002c-0.031,0.064-0.062,0.128-0.087,0.189
				c-0.358,0.897,0.979,1.308,1.465,0.616c0.123-0.174,0.237-0.36,0.34-0.555C14.896,38.172,14.893,38.352,14.922,38.534z" fill-rule="evenodd"/>
	</symbol>
	<symbol xmlns="http://www.w3.org/2000/svg" viewBox="0 0 512 512" id="candidat-test">
		<path d="M413.396,151.289c-5.889-19.521-19.364-62.501-26.933-73.221C359.92,40.468,298.598,0,226.684,0   c-52.487,0-102.17,21.14-139.897,59.525c-37.328,37.979-58.333,87.993-59.146,140.828c-0.505,32.795,6.563,64.213,21.01,93.381   c12.642,25.524,30.821,48.445,52.833,66.688V512h219.285v-84.838h35.253c43.456,0,78.81-35.354,78.81-78.81v-42.11l49.554-20.801   L413.396,151.289z M329.334,208.097h-31.789c-1.969,9.878-5.855,19.07-11.252,27.177l22.528,22.528l-21.213,21.213l-22.5-22.5   c-8.095,5.417-17.279,9.326-27.152,11.319v31.823h-30v-31.79c-9.878-1.969-19.07-5.855-27.176-11.252l-22.528,22.528   l-21.214-21.213l22.5-22.501c-5.418-8.095-9.327-17.279-11.319-27.151h-31.822v-30h31.79c1.969-9.878,5.855-19.07,11.252-27.177   l-22.528-22.529l21.213-21.213l22.5,22.501c8.095-5.418,17.279-9.327,27.151-11.32V86.719h30v31.79   c9.878,1.969,19.07,5.855,27.177,11.252l22.528-22.528l21.213,21.213l-22.5,22.5c5.418,8.095,9.327,17.279,11.32,27.151h31.822   V208.097z" fill-rule="evenodd"/>
		<path d="M222.866,147.033c-25.449,0-46.154,20.705-46.154,46.154s20.705,46.153,46.154,46.153c25.45,0,46.154-20.704,46.154-46.153   S248.315,147.033,222.866,147.033z" fill-rule="evenodd"/>
	</symbol>
	<symbol xmlns="http://www.w3.org/2000/svg" viewBox="0 0 60 60" id="candidat-time">
		<path d="M30,0.061c-16.542,0-30,13.458-30,30s13.458,29.879,30,29.879s30-13.337,30-29.879S46.542,0.061,30,0.061z M32,30.939
	c0,1.104-0.896,2-2,2H14c-1.104,0-2-0.896-2-2s0.896-2,2-2h14v-22c0-1.104,0.896-2,2-2s2,0.896,2,2V30.939z" fill-rule="evenodd"/>
	</symbol>
	<symbol xmlns="http://www.w3.org/2000/svg" viewBox="0 0 981.217 998.658" id="offer-dup">
		<path d="M610,275H943c8.323,0,16.513.139,26,0,3.333,0,12.928.488,16,1,2.735,0.545,11.831,3.968,13,5a43.145,43.145,0,0,1,4,2c1.52,1.255,2.96,2.329,3,3,0.33,0,.3.475,1,1,0.7,0.608,0-1,0,0,0.33,0,.67,1,1,1,0,1.666,2,1.334,2,3,0.33,0,.67,2,1,2v4c0.33,0,.67,9,1,9v6c0.33,0-.02,10.217,0,5v25c-0.1,9.786,0,24.013,0,35V937c0,11.275,1.66,26.523-1,36v14c0,12.166.1,24.8-5,32-2,1.67-4,3.33-6,5h-3v1h-3v1h-6v1H977c-5.158,1.44-14.211-.61-20,1-10.473,2.92-29.457,1-42,1H894c-6.659,1.86-17.673,1-26,1H589c-10.979,0-25.806,1.58-35-1H530c-13.055,0-33.07,2.07-44-1-5.78-1.62-14.842.45-20-1H456c-4.654-1.33-11.465-2.43-15-5-1.666-2.33-3.334-4.67-5-7v-3h-1v-8h-1V978h-1V787L48,786l-5-6H42v-2l-4-3v-2l-2-1v-2H35l-1-4H33v-4c-4.49-13.2-2-39.086-2-56V162c-0.093-4.5.013-8.838,0-10V140c0-17-1.131-31.1,0-47,0.333,0,.138-9.124,1-14,0.639-2.832-.737-11.827,1-18,0.333-6,1.667-6,2-12,0.765-2.491,2.387-5.164,3-8l3-2V38l6-2V35c5-.333,4-1.667,9-2,11.409-1.873,32.724-.979,45-1h6c1.467,0.015,7,.333,7,0h88l393,1c7,0.083,9.667,2,13,6,1.667,1.333,1.6,6.624,2,10V275ZM73,74V745H433c-0.062-11.354.061-24.183,1-34a39.885,39.885,0,0,1,8,2v1h2v1h3v1h2v1l6,1v1h2v1h3c4.241,1.881,8.884,4.811,14,6q0.5,130.486,1,261l494-1q0.5-334.467,1-669H475V624h-1v13c-6.1-.6-9.035-4.368-13-7h-2l-1-2h-2l-1-2h-2v-1l-3-1-1-2h-2l-2-3h-2l-2-3h-2l-3-4-3-1V292c0.039-6.164,0-10.334,5-15,0.667-1,7.619-1.751,12-2H567V74H73ZM686,383H915v42H686V383ZM536,605a28.34,28.34,0,0,1,9,4q0.5,1,1,2h2q0.5,1,1,2l3,1v1l4,1q0.5,1,1,2h2v1l3,1q0.5,1,1,2h2q0.5,1,1,2l3,1v1l4,1q0.5,1,1,2h2q0.5,1,1,2h2v1l3,1q0.5,1,1,2h2q0.5,1,1,2l3,1v1l4,1q0.5,1,1,2h2v1l3,1q0.5,1,1,2h2q0.5,1,1,2h2q0.5,1,1,2h2q0.5,1,1,2h2v1l3,1q0.5,1,1,2h2q0.5,1,1,2h2q0.5,1,1,2h2q0.5,1,1,2h2v1l3,1q0.5,1,1,2h2v1l3,1q0.5,1,1,2h2q0.5,1,1,2l3,1v1a8.22,8.22,0,0,0,4,2c-0.625,3.149-3.347,8.5-5,11l-2,1v2h-1v2l-2,1q-0.5,2-1,4l-2,1v2l-2,1v2l-2,1q-0.5,2-1,4l-2,1v2l-2,1v2l-2,1q-0.5,2-1,4l-2,1v2l-2,1v2l-2,1q-0.5,2-1,4l-2,1v2l-2,1v2h-1q-0.5,1.5-1,3l-2,1v2l-2,1v2h-1q-0.5,1.5-1,3l-2,1v2l-3,2v2h-1q-0.5,1.5-1,3l-2,1v2l-2,1q-0.5,1.5-1,3l-3,2v2h-1l-5,6c-2.01-.574-0.865.12-2-1l-3-1v-1h-2q-0.5-1-1-2l-4-1q-0.5-1-1-2h-2v-1l-3-1q-0.5-1-1-2h-2q-0.5-1-1-2h-2l-2-3c-2.957-2.114-4.949-1.882-6-6,1.988-1.762.828-2.178,2-4l2-1v-2h1v-2l2-1v-2h1v-2l2-1v-2l2-1q0.5-1.5,1-3h1q0.5-2,1-4l2-1v-2l2-1a19.806,19.806,0,0,0,3-7h-7v-1c-6.277-1.792-16.84.759-23-1H531c-7.161-.006-14.416-0.395-20-2h-9v-1h-6v-1l-9-1v-1h-4c-27.768-9.981-52.737-22.48-75-38l-2-3h-2l-2-3h-2l-3-4h-2l-4-5h-2l-7-8h-2l-11-12-11-10v-2l-2-1v-1l-7-6v-2l-6-5v-2l-4-3v-2l-5-4v-2l-4-3v-2l-3-2v-2l-3-2v-2l-3-2v-2l-3-2v-2l-2-1v-2l-3-2v-2l-2-1v-2h-1l-1-3-2-1v-2l-3-2v-2l-2-1-1-4h-1l-1-3-2-1v-2l-2-1v-2l-2-1v-2l-2-1-1-3h-1l-1-4h-1l-1-3-2-1-1-4h-1l-1-3-2-1-1-4-2-1-1-4-2-1-1-4-2-1c-2.049-3.255-2.128-7.526-5-10,0.844-1.135-.127-0.145,1-1,1.635-2.408.761-.633,3-2v-1h2l1-2h2v-1h2v-1h2v-1h2l1-2h2v-1h2l2-2h2l1-2h2c2.8-1.575,5.521-4.089,9-5v1c2.4,1.642.631,0.757,2,3h1v2l2,1v2h1v2l2,1,1,4h1l1,3,2,1,1,4,2,1,1,4,2,1v2l2,1v2l2,1v2l2,1,1,4,2,1v2l2,1v2l2,1v2h1l1,3,2,1v2l2,1v2l2,1v2l2,1v2h1l1,3,2,1v2l3,2v2l2,1v2l3,2v2l3,2v2l3,2a335.033,335.033,0,0,0,96,91l4,1v1h2v1l6,2v1h3v1l4,1v1l6,1v1h2v1l10,2v1h3v1h5v1l9,1c15.448,4.77,35.027,3.825,51,1v-1l-3-1v-1h-2v-1h-2q-0.5-1-1-2h-2q-0.5-1-1-2h-2v-1h-2q-0.5-1-1-2h-2q-0.5-1-1-2l-4-1q-0.5-1-1-2h-2v-1l-3-1q-0.5-1-1-2h-2q-0.5-1-1-2h-2l-2-3h-2v-1l-6-5v-4c2.544-2.265,3.067-6.071,5-9l2-1q0.5-2,1-4l2-1v-2l2-1v-2l2-1q0.5-2,1-4l2-1v-2h1Q535.5,606.5,536,605Zm150-98H915v42H686V507Zm0,124H915v42H686V631Zm0,124H915v42H686V755Zm0,124H915v42H686V879ZM755,57L998,326" fill-rule="evenodd"/>
	</symbol>
<symbol xmlns="http://www.w3.org/2000/svg" viewBox="0 0 512 512" style="enable-background:new 0 0 512 512;" xml:space="preserve" id="ecole">
	<g>
	<g>
		<g>
			<rect x="311" y="398" width="40" height="40"/>
			<rect x="311" y="318" width="40" height="40"/>
			<path d="M492,372c11.046,0,20-8.954,20-20v-56c0-33.084-26.916-60-60-60h-88v-40c3.598,2.698,7.809,4.001,11.985,4.001
				c6.08,0,12.086-2.763,16.015-8.001c6.627-8.837,4.836-21.373-4-28l-90.72-68.04c-6.522-4.891-13.742-8.457-21.28-10.723V73.351
				l39.863-14.566c7.853-2.869,13.092-10.32,13.136-18.68c0.045-8.36-5.116-15.866-12.938-18.817l-53-20
				c-6.143-2.318-13.035-1.473-18.436,2.262C239.224,7.284,236,13.434,236,20v65.237c-7.538,2.266-14.758,5.832-21.28,10.723
				L124,164c-8.836,6.627-10.627,19.163-4,28c6.627,8.837,19.163,10.626,28,4v40H60c-33.084,0-60,26.916-60,60v156
				c0,33.084,26.916,60,60,60h392c33.084,0,60-26.916,60-60c0-11.046-8.954-20-20-20c-11.046,0-20,8.954-20,20
				c0,11.028-8.972,20-20,20H275v-54c0-11.046-8.954-20-20-20s-20,8.954-20,20v54H60c-11.028,0-20-8.972-20-20V296
				c0-11.028,8.972-20,20-20h108c11.046,0,20-8.954,20-20v-90l50.72-38.04c10.175-7.631,24.386-7.631,34.56,0L324,166v90
				c0,11.046,8.954,20,20,20h108c11.028,0,20,8.972,20,20v56C472,363.046,480.954,372,492,372z"/>
			<circle cx="256" cy="207" r="30"/>
			<rect x="392" y="398" width="40" height="40"/>
			<rect x="392" y="318" width="40" height="40"/>
			<rect x="80" y="398" width="40" height="40"/>
			<rect x="80" y="318" width="40" height="40"/>
			<rect x="236" y="318" width="40" height="40"/>
			<rect x="160" y="398" width="40" height="40"/>
			<rect x="160" y="318" width="40" height="40"/>
		</g>
	</g>
	</g>
	<g>
	</g>
	<g>
	</g>
	<g>
	</g>
	<g>
	</g>
	<g>
	</g>
	<g>
	</g>
	<g>
	</g>
	<g>
	</g>
	<g>
	</g>
	<g>
	</g>
	<g>
	</g>
	<g>
	</g>
	<g>
	</g>
	<g>
	</g>
	<g>
	</g>	
	</symbol>
	<symbol xmlns="http://www.w3.org/2000/svg" viewBox="0 0 512 512" id="add-formation">
				<path fill-rule="evenodd" clip-rule="evenodd" d="M487.774,172.194c-2.43,5.826-7.018,9.067-12.645,11.644
					c-23.797,10.895-47.434,22.143-71.217,33.064c-3.138,1.44-4.066,3.117-4.052,6.481c0.133,34.599-0.036,69.199,0.142,103.798
					c0.064,12.535-4.09,23.276-12.22,32.562c-12.73,14.548-29.247,23.345-47.186,29.322c-52.301,17.434-105.292,17.932-158.536,4.856
					c-20.896-5.133-40.475-13.455-56.759-28.061c-12.037-10.801-18.512-23.955-18.287-40.642c0.44-32.763-0.068-65.54,0.335-98.306
					c0.077-6.335-1.805-9.481-7.578-11.678c-7.311-2.781-14.278-6.469-21.866-9.984c0,1.828,0,2.884,0,3.94
					c-0.006,25.15-0.039,50.298,0,75.448c0.01,6.82-2.894,11.812-9.123,14.499c-9.871,4.256-20.126-3.163-20.15-14.558
					c-0.066-29.722-0.074-59.443,0.028-89.164c0.011-2.821-0.699-4.42-3.4-5.512c-4.37-1.766-8.496-4.131-12.872-5.875
					c-5.884-2.346-10.562-5.839-13.056-11.837c0-2.439,0-4.879,0-7.319c2.236-4.385,4.978-8.052,9.75-10.273
					c72.301-33.655,144.552-67.417,216.791-101.2c5.208-2.436,10.108-2.395,15.34,0.052c71.273,33.33,142.565,66.619,213.913,99.784
					c5.608,2.605,10.236,5.792,12.646,11.637C487.774,167.315,487.774,169.754,487.774,172.194z M92.912,179.914
					c11.167,5.226,22.293,10.537,33.522,15.627c6.544,2.967,9.876,7.771,9.881,14.972c0.027,38.417,0.203,76.833,0.021,115.249
					c-0.033,7.182,2.49,12.687,7.521,17.369c10.87,10.118,24.179,15.76,38.043,20.126c28.394,8.943,57.59,11.357,87.182,9.771
					c23.404-1.257,46.283-5.25,68.101-14.164c9.912-4.051,19.37-8.923,27.011-16.7c4.351-4.427,6.605-9.464,6.562-15.928
					c-0.205-30.939-0.091-61.882-0.091-93.455c-1.526,0.598-2.72,0.995-3.853,1.523c-35.177,16.4-70.365,32.776-105.502,49.259
					c-5.041,2.365-9.817,2.672-14.907,0.282c-23.701-11.122-47.458-22.127-71.158-33.247c-6.439-3.021-9.871-8.739-9.295-14.888
					c0.58-6.191,4.697-11.772,10.771-12.642c3.816-0.547,8.32,0.012,11.832,1.593c20.535,9.254,40.84,19.018,61.318,28.402
					c1.904,0.873,4.856,1.106,6.682,0.26c59.093-27.412,118.108-54.993,177.13-82.557c1.219-0.568,2.393-1.229,4.188-2.159
					c-1.847-1.009-3.192-1.843-4.617-2.508c-58.614-27.365-117.242-54.699-175.829-82.121c-2.703-1.265-4.844-1.452-7.655-0.135
					c-59.127,27.707-118.308,55.301-177.473,82.926c-0.911,0.425-1.769,0.964-3.42,1.873
					C77.351,172.618,85.13,176.272,92.912,179.914z"/>
	<circle fill-rule="evenodd" clip-rule="evenodd" fill="#FFFFFF" cx="384.925" cy="372.158" r="89.716"/>
	<path fill-rule="evenodd" clip-rule="evenodd" stroke="#000000" stroke-width="6.1548" stroke-miterlimit="10" d="M382.279,475.514
		c-55.743-0.079-103.221-47.797-103.092-103.616c0.127-55.792,47.72-103.143,103.622-103.093
		c55.709,0.05,103.163,47.749,103.087,103.623C485.816,428.168,438.15,475.594,382.279,475.514z M468.978,372.358
		c0.118-48.374-37.523-86.409-85.73-86.625c-49.085-0.221-87.045,37.434-87.133,86.435c-0.091,48.3,37.593,86.202,85.926,86.428
		C430.798,458.824,468.862,421.066,468.978,372.358z"/>
	<path fill-rule="evenodd" clip-rule="evenodd" stroke="#000000" stroke-width="6.1548" stroke-miterlimit="10" d="M373.998,363.616
		c0-12.813-0.021-24.915,0.021-37.019c0.004-1.871,0.072-3.796,0.512-5.596c0.897-3.658,4.333-6.128,8.063-6.11
		c3.735,0.02,7.107,2.507,7.983,6.203c0.427,1.808,0.482,3.731,0.488,5.602c0.039,12.095,0.021,24.189,0.021,36.697
		c1.755,0.089,3.178,0.218,4.604,0.22c11.176,0.017,22.352-0.025,33.527,0.045c1.855,0.014,3.819,0.188,5.538,0.822
		c3.539,1.304,5.673,5.603,4.931,9.238c-0.861,4.225-4.167,6.902-9.149,6.946c-11.311,0.101-22.621,0.036-33.932,0.037
		c-1.603,0-3.206,0-5.521,0c0,1.82,0,3.364,0,4.908c-0.005,11.58,0.082,23.161-0.05,34.739c-0.064,5.387-3.585,8.994-8.332,9.085
		c-4.755,0.093-8.307-3.488-8.669-8.771c-0.073-1.072-0.028-2.153-0.028-3.231c0-10.636,0.006-21.273-0.011-31.91
		c0-1.442-0.117-2.885-0.201-4.814c-1.854,0-3.426,0.002-4.999,0c-11.444-0.002-22.89,0.089-34.334-0.047
		c-5.582-0.065-9.281-3.758-9.187-8.642c0.093-4.763,3.661-8.073,9.071-8.382c1.072-0.062,2.153-0.02,3.231-0.021
		c10.502,0,21.004,0,31.508,0C370.536,363.616,371.986,363.616,373.998,363.616z"/>
	</symbol>


		 <symbol xmlns="http://www.w3.org/2000/svg" viewBox="0 0 512 512" id="add-actualit">
				<path fill-rule="evenodd" clip-rule="evenodd" d="M264.138,500.686c-1.427,0-2.394,0-3.362,0c-58.645,0-117.292,0-175.939,0
				c-39.339-0.002-71.774-28.061-77.356-66.997c-0.487-3.39-0.653-6.854-0.654-10.283C6.794,290.767,6.798,158.128,6.802,25.488
				c0-11.847,8.284-20.107,20.151-20.107c112.884-0.002,225.768-0.002,338.652,0c12.185,0,20.473,8.176,20.478,20.372
				c0.027,63.233,0.015,126.465,0.017,189.698c0,0.78,0,1.56,0,2.807c-12.983-1.576-25.731-2.005-38.779-0.283
				c0-57.956,0-115.765,0-173.741c-100.7,0-201.098,0-301.83,0c0,1.15,0,2.179,0,3.207c-0.001,125.054-0.002,250.108,0,375.163
				c0,22.241,17.13,39.381,39.397,39.387c47.535,0.015,95.07,0.008,142.604-0.008c1.619,0,2.934,0.014,3.995,1.731
				c6.285,10.171,13.963,19.226,22.583,27.487C257.29,494.29,260.563,497.321,264.138,500.686z"/>
			<path fill-rule="evenodd" clip-rule="evenodd" d="M231.722,375.273c0.395-71.768,57.538-129.047,126.792-131.896
				c80.948-3.328,140.18,59.691,140.152,133.728c-0.026,74.059-60.021,132.93-133.628,133.015
				C291.415,510.207,231.012,450.112,231.722,375.273z M365.062,282.48c-53.578,0.436-92.851,43.449-94.179,90.687
				c-1.543,54.782,41.928,97.995,94.599,97.697c52.248-0.296,93.94-42.319,93.923-93.562
				C459.384,323.347,416.484,282.701,365.062,282.48z"/>
			<path fill-rule="evenodd" clip-rule="evenodd" d="M196.507,197.938c-30.247,0-60.495,0.004-90.741-0.003
				c-12.495-0.003-20.631-8.195-20.632-20.748c-0.001-24.604-0.002-49.208,0-73.81c0-12.507,8.19-20.656,20.734-20.655
				c60.757,0.002,121.517,0.002,182.275,0.001c12.124,0,20.391,7.956,20.443,20.089c0.106,25.042,0.099,50.087,0.013,75.131
				c-0.038,11.902-8.366,19.988-20.296,19.991C257.706,197.948,227.106,197.94,196.507,197.938z M123.979,159.031
				c48.651,0,97.156,0,145.727,0c0-12.541,0-24.916,0-37.329c-48.688,0-97.195,0-145.727,0
				C123.979,134.235,123.979,146.542,123.979,159.031z"/>
			<path fill-rule="evenodd" clip-rule="evenodd" d="M134.104,310.136c9.959,0.004,19.92-0.084,29.877,0.031
				c9.239,0.105,16.997,6.811,18.549,15.774c1.612,9.291-3.256,18.224-11.932,21.455c-2.261,0.839-4.788,1.344-7.197,1.356
				c-19.566,0.105-39.131,0.086-58.698,0.049c-10.862-0.02-19.481-8.486-19.571-19.104c-0.091-10.814,8.374-19.437,19.357-19.545
				C114.361,310.059,124.233,310.134,134.104,310.136z"/>
			<path fill-rule="evenodd" clip-rule="evenodd" d="M133.83,423.34c-9.783,0-19.566,0.076-29.348-0.02
				c-9.149-0.091-16.855-6.287-18.81-14.907c-2.012-8.882,2.001-17.756,10.158-21.688c2.389-1.15,5.206-1.964,7.833-1.983
				c20.268-0.158,40.539-0.22,60.808-0.013c8.474,0.087,15.331,5.838,17.622,13.874c2.292,8.042-0.666,16.447-7.486,21.22
				c-3.507,2.453-7.437,3.524-11.692,3.521C153.22,423.334,143.525,423.34,133.83,423.34z"/>
			<path fill-rule="evenodd" clip-rule="evenodd" d="M133.824,273.344c-9.606,0-19.214,0.074-28.819-0.019
				c-11.232-0.109-19.759-8.36-19.871-19.062c-0.113-10.683,8.247-19.523,19.068-19.613c19.917-0.166,39.836-0.164,59.752,0.003
				c10.54,0.087,18.87,8.768,18.969,19.207c0.099,10.421-8.049,19.1-18.696,19.383c-10.127,0.267-20.267,0.055-30.403,0.055
				C133.824,273.313,133.824,273.33,133.824,273.344z"/>
			<path fill-rule="evenodd" clip-rule="evenodd" d="M290.505,234.875c-7.001,4.61-14.124,8.831-20.72,13.759
				c-9.015,6.736-17.577,14.054-24.801,22.807c-0.813,0.987-2.458,1.805-3.723,1.812c-5.176,0.03-10.494,0.392-15.509-0.619
				c-9.859-1.984-15.698-10.875-14.69-21.067c0.894-9.076,8.903-16.784,18.422-16.89c20.174-0.224,40.353-0.065,60.53-0.052
				C290.153,234.624,290.295,234.763,290.505,234.875z"/>
			<path fill-rule="evenodd" clip-rule="evenodd" d="M397.58,396.083c-3.264,0-6.531,0.114-9.786-0.04
				c-2.27-0.104-3.14,0.603-3.071,2.982c0.153,5.287-0.13,10.586,0.081,15.87c0.473,11.771-7.939,20.13-18.684,20.959
				c-9.058,0.696-18.698-5.983-19.968-15.644c-0.892-6.772-0.51-13.717-0.641-20.583c-0.067-3.547-0.014-3.547-3.663-3.547
				c-5.643,0.002-11.292-0.171-16.929,0.039c-8.961,0.334-18.316-7.627-18.881-17.784c-0.619-11.15,6.612-20.121,17.129-20.948
				c6.489-0.513,13.032-0.395,19.551-0.366c2.229,0.011,2.822-0.721,2.828-2.886c0.021-7.041-0.2-14.133,0.538-21.112
				c0.902-8.554,9.81-15.316,18.36-15.636c10.776-0.4,20.492,8.218,20.336,20.287c-0.066,5.114-0.008,10.229-0.006,15.343
				c0,3.951,0,3.912,3.836,3.963c6.255,0.086,12.524-0.023,18.76,0.402c8.539,0.582,14.573,7.343,16.387,14.351
				c3.033,11.734-4.388,21.265-13.586,23.701c-3.989,1.058-8.374,0.633-12.58,0.882C397.589,396.239,397.584,396.162,397.58,396.083z"
				/>
		 </symbol>
		 <symbol xmlns="http://www.w3.org/2000/svg" viewBox="0 0 512 512" id="actualit-icon">
			<path d="M162.002,237h-61c-11.046,0-20,8.954-20,20s8.954,20,20,20h61c11.046,0,20-8.954,20-20S173.048,237,162.002,237z"/>
			<path d="M162.002,315h-61c-11.046,0-20,8.954-20,20s8.954,20,20,20h61c11.046,0,20-8.954,20-20S173.048,315,162.002,315z"/>
			<path d="M162.002,391.999h-61c-11.046,0-20,8.954-20,20s8.954,20,20,20h61c11.046,0,20-8.954,20-20
				S173.048,391.999,162.002,391.999z"/>
			<path d="M292.001,391.999h-61c-11.046,0-20,8.954-20,20s8.954,20,20,20h61c11.046,0,20-8.954,20-20
				S303.047,391.999,292.001,391.999z"/>
			<path d="M292.001,80.001H101.002c-11.046,0-20,8.954-20,20v79c0,11.046,8.954,20,20,20h190.999c11.046,0,20-8.954,20-20v-79
				C312.001,88.955,303.047,80.001,292.001,80.001z M272.001,159.001H121.002v-39h150.999V159.001L272.001,159.001z"/>
			<path d="M492,351.999c11.046,0,20-8.954,20-20v-50c0-11.046-8.954-20-20-20h-99.999V20.001c0-11.046-8.954-20-20-20H20.003
				c-11.045,0-20,8.954-20,20L0,431.995c0,44.111,35.887,80,80,80.001l351.998,0.003c0.153,0,0.306-0.002,0.458-0.005
				c21.198-0.117,41.108-8.427,56.111-23.428c15.11-15.11,23.433-35.201,23.433-56.571c0-11.046-8.954-20-20-20s-20,8.954-20,20
				c0,10.686-4.161,20.729-11.717,28.286c-7.557,7.554-17.6,11.714-28.283,11.714c-0.001,0-0.003,0-0.003,0
				c-22.054-0.002-39.997-17.946-39.997-40V302h80v30C472,343.046,480.955,351.999,492,351.999z M80,471.996
				c-22.056-0.001-40-17.945-40-40.001l0.003-391.994h311.998v391.994c0,14.562,3.912,28.229,10.739,40.003L80,471.996z"/>
			<path d="M292.001,237h-61c-11.046,0-20,8.954-20,20s8.954,20,20,20h61c11.046,0,20-8.954,20-20S303.047,237,292.001,237z"/>
			<path d="M292.001,315h-61c-11.046,0-20,8.954-20,20s8.954,20,20,20h61c11.046,0,20-8.954,20-20S303.047,315,292.001,315z"/>
		</symbol>
			<symbol xmlns="http://www.w3.org/2000/svg" viewBox="0 0 512 512" style="enable-background:new 0 0 512 512;" id="calendrier">
				<path d="M452,40h-24V0h-40v40H124V0H84v40H60C26.916,40,0,66.916,0,100v352c0,33.084,26.916,60,60,60h392
			c33.084,0,60-26.916,60-60V100C512,66.916,485.084,40,452,40z M472,452c0,11.028-8.972,20-20,20H60c-11.028,0-20-8.972-20-20V188
			h432V452z M472,148H40v-48c0-11.028,8.972-20,20-20h24v40h40V80h264v40h40V80h24c11.028,0,20,8.972,20,20V148z"/>
		</symbol>
</svg>